<svg xmlns="http://www.w3.org/2000/svg" xmlns:xlink="http://www.w3.org/1999/xlink" width="500" zoomAndPan="magnify" viewBox="0 0 375 374.999991" height="500" preserveAspectRatio="xMidYMid meet" version="1.2"><g id="234e68a149"><path style=" stroke:none;fill-rule:nonzero;fill:#233c4f;fill-opacity:1;" d="M 340.417969 191.117188 C 326 191.117188 311.582031 191.117188 297.164062 191.117188 C 287.660156 191.117188 278.078125 191.117188 268.441406 191.117188 C 241.488281 191.117188 214.125 191.117188 187.101562 191.105469 C 186.28125 191.105469 185.585938 191.113281 184.972656 191.125 C 184.605469 191.132812 184.21875 191.140625 183.875 191.140625 C 183.875 190.792969 183.878906 190.40625 183.886719 190.035156 C 183.894531 189.433594 183.90625 188.75 183.90625 187.949219 C 183.894531 156.34375 183.894531 124.210938 183.894531 93.132812 C 183.894531 73.273438 183.894531 53.414062 183.890625 33.550781 C 183.890625 31.085938 183.613281 27.558594 181.21875 25.335938 C 179.566406 23.804688 177.261719 23.171875 174.167969 23.40625 C 171.949219 23.570312 169.675781 23.71875 167.476562 23.863281 C 159.683594 24.375 151.625 24.902344 143.789062 26.371094 C 133 28.390625 122.535156 31.300781 112.695312 35.015625 C 102.882812 38.71875 93.421875 43.328125 84.570312 48.714844 C 75.753906 54.082031 67.304688 60.363281 59.460938 67.386719 C 51.648438 74.378906 44.226562 82.300781 37.390625 90.921875 C 28.359375 102.324219 20.867188 114.636719 15.128906 127.519531 C 9.378906 140.425781 5.238281 154.238281 2.820312 168.570312 C 2.046875 173.148438 1.441406 177.804688 0.855469 182.308594 C 0.589844 184.363281 0.3125 186.488281 0.0273438 188.566406 L 0 188.753906 L 0 210.054688 L 0.0234375 210.238281 C 0.242188 211.875 0.460938 213.546875 0.667969 215.164062 C 1.125 218.671875 1.597656 222.300781 2.125 225.875 C 4.398438 241.265625 8.617188 256.066406 14.667969 269.867188 C 20.707031 283.636719 28.71875 296.757812 38.484375 308.871094 C 51.058594 324.46875 65.5 337.519531 81.398438 347.664062 C 97.472656 357.914062 115.429688 365.445312 134.777344 370.046875 C 140.894531 371.503906 147.195312 372.328125 153.289062 373.125 C 156.132812 373.496094 159.078125 373.882812 161.945312 374.324219 C 162.441406 374.402344 162.984375 374.542969 163.558594 374.691406 C 163.859375 374.769531 164.171875 374.851562 164.492188 374.929688 L 164.804688 375.003906 L 186.242188 375.003906 L 186.425781 374.980469 C 188.761719 374.664062 191.15625 374.386719 193.476562 374.121094 C 198.570312 373.53125 203.839844 372.925781 208.988281 371.867188 C 221.824219 369.222656 234.082031 365.449219 245.429688 360.648438 C 256.785156 355.839844 267.535156 349.871094 277.382812 342.910156 C 287.226562 335.953125 296.4375 327.808594 304.753906 318.710938 C 313.058594 309.621094 320.703125 299.335938 327.46875 288.132812 C 335.203125 275.328125 341.15625 261.53125 345.164062 247.125 C 349.042969 233.191406 351.203125 218.3125 351.585938 202.90625 C 351.695312 198.542969 351.367188 195.613281 349.363281 193.5625 C 347.378906 191.527344 344.46875 191.117188 340.414062 191.117188 Z M 37.160156 265.199219 C 44.253906 262.269531 51.34375 259.335938 58.441406 256.40625 C 61.363281 255.203125 63.5625 254.300781 65.5 253.507812 L 67.417969 252.722656 C 81.789062 246.835938 93.890625 241.835938 99.054688 239.703125 C 107.324219 236.289062 112.363281 234.195312 114.261719 233.410156 C 114.757812 233.203125 115.0625 233.074219 115.179688 233.027344 C 119.75 231.140625 124.316406 229.261719 128.886719 227.378906 C 143.140625 221.507812 157.878906 215.4375 172.339844 209.367188 C 173.230469 208.992188 173.550781 209.023438 173.628906 209.042969 C 173.707031 209.0625 174.015625 209.175781 174.6875 209.910156 C 193.890625 230.859375 213.46875 252.105469 232.398438 272.65625 C 236.6875 277.3125 240.976562 281.96875 245.265625 286.621094 C 250.28125 292.070312 255.300781 297.515625 260.320312 302.960938 C 265.566406 308.65625 270.8125 314.347656 276.054688 320.042969 C 276.621094 320.65625 277.183594 321.277344 277.792969 321.949219 C 247.101562 346.40625 213.339844 358.703125 177.054688 358.703125 C 166.421875 358.703125 155.570312 357.644531 144.515625 355.527344 C 85.332031 344.195312 47.214844 301.566406 31.867188 267.386719 Z M 166.082031 194.453125 L 166.027344 194.472656 C 163.195312 195.457031 120.753906 212.824219 57.902344 238.605469 L 25.222656 252.34375 C 8.722656 200.558594 14.910156 152.78125 43.628906 110.292969 C 72.597656 67.441406 114.277344 43.742188 167.542969 39.824219 C 167.566406 40.253906 167.578125 40.644531 167.578125 41.023438 C 167.582031 52.675781 167.582031 64.332031 167.582031 75.984375 C 167.582031 113.953125 167.582031 153.210938 167.648438 191.824219 C 167.648438 192.722656 167.554688 193.324219 167.363281 193.609375 C 167.015625 194.136719 166.3125 194.375 166.082031 194.457031 Z M 335.050781 207.605469 C 332.6875 247.644531 317.835938 281.46875 289.726562 310.824219 L 194.671875 207.605469 Z M 335.050781 207.605469 "/><path style=" stroke:none;fill-rule:nonzero;fill:#233c4f;fill-opacity:1;" d="M 374.9375 163.824219 C 374.859375 163.445312 374.765625 163.089844 374.675781 162.742188 C 374.523438 162.140625 374.378906 161.570312 374.339844 161.097656 C 373.804688 154.203125 372.839844 147.292969 371.480469 140.5625 C 368.757812 127.132812 362.71875 110.367188 358.15625 100.75 C 354.539062 93.121094 350.316406 85.664062 345.605469 78.589844 C 334.210938 61.460938 321.984375 49.476562 313.738281 42.4375 C 301.011719 31.578125 287.203125 22.6875 272.699219 16.007812 C 258.066406 9.269531 242.3125 4.597656 225.886719 2.121094 C 222.480469 1.609375 219.023438 1.132812 215.675781 0.675781 C 214.109375 0.460938 212.542969 0.246094 210.976562 0.0273438 L 210.785156 0 L 196.921875 0 L 196.316406 0.320312 C 192.769531 2.195312 191.046875 5.316406 191.054688 9.863281 C 191.105469 48.386719 191.105469 87.5625 191.109375 125.445312 C 191.109375 141.714844 191.113281 157.992188 191.117188 174.261719 C 191.117188 176.625 191.375 179.59375 193.394531 181.609375 C 195.410156 183.617188 198.378906 183.875 200.738281 183.875 C 215.9375 183.878906 231.136719 183.878906 246.339844 183.878906 C 285.277344 183.878906 325.539062 183.882812 365.140625 183.9375 L 365.164062 183.9375 C 369.648438 183.9375 372.757812 182.226562 374.667969 178.710938 L 375.003906 178.09375 L 375.003906 164.109375 Z M 358.4375 167.265625 L 207.765625 167.265625 L 207.765625 16.207031 C 209.804688 16.484375 211.824219 16.746094 213.796875 17.003906 C 220.320312 17.847656 226.480469 18.640625 232.589844 19.945312 C 266.84375 27.25 295.898438 44.300781 318.945312 70.617188 C 326.28125 79 332.109375 87.660156 332.75 88.621094 C 335.628906 92.9375 338.34375 97.433594 340.8125 101.988281 C 341.6875 103.808594 342.554688 105.667969 343.386719 107.523438 L 343.453125 107.671875 C 344.570312 110.128906 347.378906 116.429688 349.308594 121.800781 C 353.445312 133.332031 356.285156 145.511719 357.75 158.011719 C 358.070312 160.742188 358.230469 163.570312 358.386719 166.308594 C 358.402344 166.625 358.421875 166.945312 358.441406 167.265625 Z M 358.4375 167.265625 "/><path style=" stroke:none;fill-rule:nonzero;fill:#233c4f;fill-opacity:1;" d="M 269.742188 98.917969 C 266.703125 98.230469 263.621094 97.761719 260.566406 97.160156 C 252.429688 95.558594 248.863281 90.660156 249.8125 82.40625 C 250.464844 76.734375 255.625 71.648438 261.285156 70.90625 C 269.953125 69.773438 276.691406 76.839844 276.730469 84.367188 C 276.75 88.433594 279.992188 91.296875 283.683594 91.128906 C 287.804688 90.941406 290.5 87.964844 290.421875 83.683594 C 290.21875 72.390625 283.035156 62.414062 272.296875 58.671875 C 270.664062 58.101562 269.707031 57.390625 270.042969 55.539062 C 270.117188 55.128906 270.042969 54.691406 270.027344 54.265625 C 269.898438 51.515625 268.496094 49.609375 266.074219 48.4375 C 263.703125 47.289062 261.394531 47.5625 259.230469 49.015625 C 256.867188 50.605469 256.066406 52.945312 256.300781 55.660156 C 256.4375 57.253906 255.902344 58.074219 254.320312 58.5625 C 249.234375 60.140625 245.3125 63.347656 241.824219 67.328125 C 232.332031 78.167969 232.785156 102.714844 253.242188 109.421875 C 257.382812 110.777344 261.785156 111.347656 266.074219 112.242188 C 273.203125 113.734375 276.582031 117.703125 276.652344 124.71875 C 276.722656 132.191406 271.039062 138.230469 263.683594 138.550781 C 255.898438 138.890625 249.714844 132.324219 249.621094 125.109375 C 249.5625 120.910156 246.339844 118 242.554688 118.230469 C 238.460938 118.476562 235.816406 121.480469 235.914062 125.773438 C 236.167969 136.976562 243.347656 147.007812 253.925781 150.660156 C 255.816406 151.316406 256.246094 152.234375 256.394531 154.128906 C 256.535156 155.976562 257.191406 158.082031 258.34375 159.476562 C 260.1875 161.714844 262.925781 162.246094 265.703125 161.085938 C 268.511719 159.917969 270.203125 157.761719 269.992188 154.660156 C 269.828125 152.285156 270.695312 151.359375 272.914062 150.453125 C 282.878906 146.390625 288.859375 138.984375 290.238281 128.191406 C 292.082031 113.761719 283.90625 102.128906 269.742188 98.917969 Z M 269.742188 98.917969 "/><path style=" stroke:none;fill-rule:nonzero;fill:#233c4f;fill-opacity:1;" d="M 302.515625 279.839844 C 305.21875 279.839844 306.914062 278.691406 307.863281 277.730469 C 308.8125 276.769531 309.9375 275.054688 309.902344 272.347656 C 309.894531 271.550781 309.847656 270.835938 309.761719 270.152344 C 308.648438 261.3125 303.757812 254.632812 295.617188 250.828125 C 293.339844 249.761719 290.792969 250.039062 288.804688 251.558594 C 286.285156 253.484375 283.019531 253.472656 280.480469 251.527344 C 278.59375 250.078125 276.238281 249.773438 274.011719 250.6875 C 269.777344 252.425781 266.136719 255.429688 263.480469 259.371094 C 260.824219 263.316406 259.414062 267.824219 259.40625 272.398438 C 259.398438 275.101562 260.527344 276.800781 261.476562 277.753906 C 262.425781 278.703125 264.128906 279.839844 266.847656 279.839844 C 268.898438 279.839844 270.949219 279.839844 273.003906 279.839844 C 276.886719 279.839844 280.769531 279.839844 284.652344 279.839844 L 284.65625 279.839844 C 285.960938 279.839844 287.265625 279.839844 288.570312 279.839844 L 292.3125 279.839844 C 295.714844 279.839844 299.117188 279.839844 302.515625 279.839844 Z M 284.648438 268.3125 C 280.34375 268.3125 276.039062 268.3125 271.734375 268.3125 C 272.644531 265.984375 274.265625 263.898438 276.308594 262.484375 C 281.566406 265.203125 287.710938 265.214844 292.960938 262.515625 C 295.175781 264 296.683594 265.898438 297.558594 268.3125 C 295.808594 268.3125 294.058594 268.3125 292.3125 268.3125 L 288.570312 268.3125 C 287.261719 268.3125 285.957031 268.3125 284.648438 268.3125 Z M 284.648438 268.3125 "/><path style=" stroke:none;fill-rule:nonzero;fill:#233c4f;fill-opacity:1;" d="M 284.679688 250.171875 L 284.699219 250.171875 C 293.976562 250.171875 301.546875 242.59375 301.578125 233.277344 C 301.589844 228.800781 299.84375 224.570312 296.65625 221.367188 C 293.457031 218.15625 289.21875 216.386719 284.71875 216.378906 L 284.703125 216.378906 C 280.140625 216.378906 275.859375 218.152344 272.648438 221.371094 C 269.464844 224.558594 267.71875 228.789062 267.734375 233.277344 C 267.746094 237.800781 269.511719 242.046875 272.707031 245.230469 C 275.902344 248.414062 280.152344 250.167969 284.679688 250.171875 Z M 280.808594 229.511719 C 281.839844 228.476562 283.222656 227.910156 284.703125 227.910156 L 284.707031 227.910156 C 286.121094 227.910156 287.464844 228.476562 288.484375 229.5 C 289.5 230.519531 290.054688 231.847656 290.050781 233.242188 C 290.039062 236.222656 287.640625 238.644531 284.699219 238.644531 L 284.691406 238.644531 C 281.65625 238.640625 279.269531 236.269531 279.261719 233.242188 C 279.257812 231.839844 279.804688 230.515625 280.808594 229.511719 Z M 280.808594 229.511719 "/><path style=" stroke:none;fill-rule:nonzero;fill:#233c4f;fill-opacity:1;" d="M 127.441406 257.429688 L 141.890625 257.429688 L 141.890625 317.363281 L 127.441406 317.363281 Z M 127.441406 257.429688 "/><path style=" stroke:none;fill-rule:nonzero;fill:#233c4f;fill-opacity:1;" d="M 153.230469 277.253906 L 167.679688 277.253906 L 167.679688 317.363281 L 153.230469 317.363281 Z M 153.230469 277.253906 "/><path style=" stroke:none;fill-rule:nonzero;fill:#233c4f;fill-opacity:1;" d="M 179.023438 241.972656 L 193.46875 241.972656 L 193.46875 317.363281 L 179.023438 317.363281 Z M 179.023438 241.972656 "/><path style=" stroke:none;fill-rule:nonzero;fill:#233c4f;fill-opacity:1;" d="M 101.648438 320.652344 L 197.027344 320.652344 L 197.027344 326.316406 L 101.648438 326.316406 Z M 101.648438 320.652344 "/><path style=" stroke:none;fill-rule:nonzero;fill:#233c4f;fill-opacity:1;" d="M 101.648438 277.253906 L 116.097656 277.253906 L 116.097656 317.363281 L 101.648438 317.363281 Z M 101.648438 277.253906 "/><path style=" stroke:none;fill-rule:nonzero;fill:#233c4f;fill-opacity:1;" d="M 92.1875 94.949219 C 92.09375 94.949219 92.003906 94.949219 91.910156 94.949219 C 78.25 94.949219 65.410156 100.226562 55.730469 109.824219 C 45.914062 119.554688 40.484375 132.59375 40.4375 146.53125 C 40.390625 160.15625 45.695312 173.019531 55.371094 182.75 C 65.109375 192.542969 78.0625 197.953125 91.84375 197.984375 L 91.960938 197.984375 C 105.613281 197.984375 118.480469 192.65625 128.203125 182.964844 C 137.949219 173.25 143.335938 160.347656 143.359375 146.636719 C 143.386719 132.894531 138.085938 119.949219 128.425781 110.195312 C 118.765625 100.4375 105.894531 95.023438 92.1875 94.953125 Z M 120.949219 175.730469 C 113.171875 183.441406 102.847656 187.679688 91.859375 187.679688 C 91.796875 187.679688 91.738281 187.679688 91.675781 187.679688 C 80.703125 187.632812 70.378906 183.304688 62.597656 175.488281 C 54.824219 167.675781 50.570312 157.355469 50.617188 146.433594 C 50.667969 135.347656 55.011719 124.964844 62.84375 117.199219 C 70.632812 109.480469 80.972656 105.238281 91.984375 105.238281 C 92.050781 105.238281 92.121094 105.238281 92.1875 105.238281 C 114.851562 105.347656 133.222656 123.890625 133.140625 146.574219 C 133.097656 157.621094 128.769531 167.976562 120.949219 175.726562 Z M 120.949219 175.730469 "/><path style=" stroke:none;fill-rule:nonzero;fill:#233c4f;fill-opacity:1;" d="M 118.847656 166.25 C 118.648438 166.039062 118.46875 165.851562 118.304688 165.679688 C 117.953125 165.308594 117.660156 165 117.355469 164.695312 L 113.238281 160.570312 C 107.964844 155.292969 102.511719 149.835938 97.117188 144.488281 C 97.078125 144.453125 97.050781 144.417969 97.03125 144.394531 C 97.03125 144.375 97.027344 144.351562 97.027344 144.320312 C 97.0625 136.984375 97.058594 129.53125 97.054688 122.320312 C 97.054688 120.070312 97.054688 117.816406 97.054688 115.5625 L 97.054688 113.667969 C 97.054688 111.652344 95.417969 110.019531 93.402344 110.019531 L 90.476562 110.019531 C 88.597656 110.019531 87.027344 111.445312 86.84375 113.316406 C 86.835938 113.417969 86.824219 113.503906 86.816406 113.578125 C 86.789062 113.808594 86.753906 114.09375 86.753906 114.433594 L 86.75 119.839844 C 86.746094 128.390625 86.742188 137.230469 86.796875 145.933594 C 86.808594 147.871094 87.886719 149.652344 88.894531 150.671875 C 92.996094 154.824219 97.191406 159.019531 101.242188 163.074219 C 103.640625 165.476562 106.042969 167.875 108.4375 170.28125 C 109.042969 170.890625 109.628906 171.5625 110.195312 172.214844 C 110.460938 172.519531 110.714844 172.808594 110.953125 173.078125 C 112.210938 174.476562 114.320312 174.691406 115.832031 173.578125 L 118.371094 171.714844 C 120.144531 170.410156 120.367188 167.839844 118.84375 166.25 Z M 118.847656 166.25 "/></g></svg>