<svg xmlns="http://www.w3.org/2000/svg" xmlns:xlink="http://www.w3.org/1999/xlink" width="500" zoomAndPan="magnify" viewBox="0 0 375 374.999991" height="500" preserveAspectRatio="xMidYMid meet" version="1.2"><defs><clipPath id="8d593f56f1"><path d="M 0 6.09375 L 355 6.09375 L 355 361 L 0 361 Z M 0 6.09375 "/></clipPath><clipPath id="80532c66c8"><path d="M 214 222 L 374.894531 222 L 374.894531 368.949219 L 214 368.949219 Z M 214 222 "/></clipPath></defs><g id="d209701939"><g clip-rule="nonzero" clip-path="url(#8d593f56f1)"><path style=" stroke:none;fill-rule:nonzero;fill:#233c4f;fill-opacity:1;" d="M 65.0625 298.0625 C 76.152344 294.003906 86.964844 290.636719 97.457031 287.875 C 100.144531 294.496094 103.089844 300.796875 106.292969 306.746094 C 112.375 318.03125 119.179688 327.691406 126.613281 335.605469 C 103.253906 327.851562 82.273438 314.878906 65.0625 298.0625 Z M 16.957031 192.171875 L 78.742188 192.171875 C 79.292969 212.46875 81.722656 232.1875 85.988281 250.902344 C 87.667969 258.289062 89.613281 265.40625 91.808594 272.246094 C 78.839844 275.734375 65.898438 279.96875 53.027344 284.929688 C 32.09375 259.398438 18.878906 227.289062 16.957031 192.171875 Z M 52.125 82.667969 C 59.464844 86.152344 72.71875 91.753906 91.011719 96.769531 C 89.140625 102.832031 87.464844 109.113281 85.988281 115.589844 C 81.640625 134.671875 79.199219 154.796875 78.714844 175.515625 L 16.890625 175.515625 C 18.558594 140.441406 31.476562 108.3125 52.125 82.667969 Z M 126.613281 30.890625 C 119.179688 38.804688 112.375 48.460938 106.292969 59.75 C 102.691406 66.4375 99.410156 73.570312 96.464844 81.109375 C 86.496094 78.414062 78.304688 75.597656 72.238281 73.265625 C 68.988281 72.019531 66.136719 70.832031 63.703125 69.769531 C 81.167969 52.304688 102.636719 38.847656 126.613281 30.890625 Z M 177.207031 23.53125 C 198.546875 23.53125 218.921875 39.539062 234.582031 68.605469 C 237.125 73.324219 239.492188 78.292969 241.671875 83.472656 C 193.277344 93.917969 152.507812 91.800781 123.769531 87.039062 C 119.742188 86.371094 115.871094 85.640625 112.167969 84.863281 C 114.503906 79.179688 117.0625 73.75 119.832031 68.605469 C 135.492188 39.539062 155.867188 23.53125 177.207031 23.53125 Z M 290.242188 69.300781 C 278.992188 73.445312 268.03125 76.882812 257.390625 79.699219 C 254.589844 72.679688 251.5 66.019531 248.121094 59.75 C 242.039062 48.460938 235.238281 38.804688 227.804688 30.890625 C 251.566406 38.773438 272.863281 52.0625 290.242188 69.300781 Z M 337.523438 175.515625 L 275.699219 175.515625 C 275.21875 154.796875 272.777344 134.671875 268.429688 115.589844 C 266.835938 108.601562 265.007812 101.847656 262.960938 95.347656 C 276.058594 91.808594 289.136719 87.515625 302.128906 82.46875 C 322.871094 108.148438 335.855469 140.351562 337.523438 175.515625 Z M 94.464844 175.515625 C 95.128906 148.695312 99.265625 123.101562 106.460938 100.554688 C 110.847656 101.5 115.441406 102.394531 120.246094 103.203125 C 137.472656 106.105469 155.089844 107.5625 172.894531 107.5625 C 183.019531 107.5625 193.203125 107.089844 203.414062 106.152344 C 218.070312 104.796875 232.792969 102.457031 247.507812 99.160156 C 254.980469 122.050781 259.269531 148.140625 259.953125 175.515625 Z M 227.804688 335.605469 C 234.246094 328.75 240.210938 320.582031 245.640625 311.183594 L 236.539062 294.140625 C 235.898438 295.40625 235.25 296.65625 234.582031 297.886719 C 218.921875 326.953125 198.546875 342.960938 177.207031 342.960938 C 155.867188 342.960938 135.492188 326.953125 119.832031 297.886719 C 117.46875 293.5 115.257812 288.898438 113.207031 284.113281 C 160.601562 273.957031 200.648438 275.835938 229.207031 280.414062 L 219.582031 262.386719 C 207.042969 260.882812 194.328125 260.125 181.519531 260.125 C 171.390625 260.125 161.207031 260.59375 150.996094 261.539062 C 136.460938 262.882812 121.867188 265.191406 107.273438 268.445312 C 99.6875 245.621094 95.285156 219.554688 94.496094 192.171875 L 259.917969 192.171875 C 259.605469 203.117188 258.714844 213.847656 257.269531 224.25 L 272.339844 230.148438 C 274.203125 217.800781 275.320312 205.105469 275.671875 192.171875 L 337.460938 192.171875 C 336.335938 212.738281 331.332031 232.273438 323.179688 250.0625 L 338.71875 256.148438 C 348.769531 233.914062 354.363281 209.234375 354.363281 183.25 C 354.363281 85.410156 275.046875 6.09375 177.207031 6.09375 C 79.367188 6.09375 0.0546875 85.410156 0.0546875 183.25 C 0.0546875 281.085938 79.367188 360.402344 177.207031 360.402344 C 207.425781 360.402344 235.871094 352.835938 260.761719 339.496094 L 252.914062 324.796875 C 244.925781 329.082031 236.53125 332.710938 227.804688 335.605469 "/></g><g clip-rule="nonzero" clip-path="url(#80532c66c8)"><path style=" stroke:none;fill-rule:nonzero;fill:#233c4f;fill-opacity:1;" d="M 355.429688 354.171875 L 307.574219 311.957031 L 291.585938 352.289062 L 230.363281 237.761719 L 351.636719 284.210938 L 313.621094 305.105469 L 361.476562 347.320312 Z M 374.871094 346.480469 C 374.722656 344.074219 373.640625 341.871094 371.835938 340.277344 L 334.589844 307.425781 L 363.710938 291.417969 C 366.761719 289.742188 368.507812 286.542969 368.273438 283.066406 C 368.03125 279.59375 365.867188 276.667969 362.613281 275.421875 L 225.527344 222.914062 C 224.546875 222.539062 223.519531 222.34375 222.480469 222.34375 C 219.535156 222.34375 216.757812 223.929688 215.226562 226.484375 C 213.6875 229.046875 213.613281 232.164062 215.03125 234.816406 L 284.238281 364.273438 C 285.78125 367.160156 288.765625 368.949219 292.027344 368.949219 C 295.675781 368.949219 298.902344 366.753906 300.246094 363.367188 L 312.496094 332.472656 L 349.738281 365.328125 C 351.386719 366.785156 353.507812 367.582031 355.707031 367.582031 C 358.296875 367.582031 360.761719 366.46875 362.472656 364.527344 L 372.632812 353.015625 C 374.226562 351.207031 375.023438 348.882812 374.871094 346.480469 "/></g></g></svg>