<svg xmlns="http://www.w3.org/2000/svg" xmlns:xlink="http://www.w3.org/1999/xlink" width="500" zoomAndPan="magnify" viewBox="0 0 375 374.999991" height="500" preserveAspectRatio="xMidYMid meet" version="1.2"><g id="d70b81f92e"><path style=" stroke:none;fill-rule:nonzero;fill:#233c4f;fill-opacity:1;" d="M 277.660156 224.226562 C 278.039062 222.335938 279.550781 221.203125 281.4375 220.824219 L 296.921875 219.316406 C 302.585938 218.558594 307.117188 213.652344 307.117188 207.988281 L 307.117188 183.816406 C 307.117188 178.152344 302.585938 173.242188 296.921875 172.488281 L 281.4375 170.976562 C 279.550781 170.601562 278.039062 169.46875 277.660156 167.578125 C 276.152344 162.292969 273.886719 157.003906 271.242188 152.472656 C 270.488281 150.964844 270.488281 148.695312 271.621094 147.5625 L 281.4375 135.480469 C 285.214844 130.949219 284.835938 124.527344 280.683594 120.375 L 263.3125 103.003906 C 259.15625 98.847656 252.738281 98.472656 248.207031 102.246094 L 236.121094 112.066406 C 234.609375 112.820312 232.722656 112.820312 231.210938 112.066406 C 226.304688 109.421875 221.394531 107.535156 216.105469 105.644531 C 214.21875 105.269531 213.085938 103.757812 212.707031 101.871094 L 210.820312 86.386719 C 210.066406 80.722656 205.15625 76.191406 199.492188 76.191406 L 175.320312 76.191406 C 169.65625 76.191406 164.75 80.722656 163.992188 86.386719 L 162.480469 101.871094 C 162.105469 103.757812 160.972656 105.269531 159.082031 105.644531 C 153.796875 107.15625 148.507812 109.421875 143.976562 112.066406 C 142.46875 112.820312 140.203125 112.820312 139.070312 111.6875 L 126.984375 101.871094 C 122.453125 98.09375 116.03125 98.472656 111.878906 102.625 L 94.507812 119.996094 C 90.351562 124.152344 89.976562 130.570312 93.753906 135.101562 L 103.570312 147.1875 C 104.703125 148.695312 104.703125 150.585938 103.949219 152.097656 C 101.304688 157.003906 99.417969 161.914062 97.527344 167.203125 C 97.152344 169.089844 95.640625 170.222656 93.753906 170.601562 L 77.890625 172.488281 C 72.226562 173.242188 67.695312 178.152344 67.695312 183.816406 L 67.695312 207.988281 C 67.695312 213.652344 72.226562 218.558594 77.890625 219.316406 L 93.375 220.824219 C 95.261719 221.203125 96.773438 222.335938 97.152344 224.226562 C 98.660156 229.511719 100.925781 234.796875 103.570312 239.332031 C 104.324219 240.839844 104.324219 243.105469 103.191406 244.238281 L 93.375 256.324219 C 89.597656 260.855469 89.976562 267.277344 94.128906 271.429688 L 111.5 288.800781 C 115.65625 292.953125 122.074219 293.332031 126.605469 289.554688 L 138.691406 279.738281 C 140.203125 278.605469 142.089844 278.605469 143.601562 279.359375 C 148.507812 282.003906 153.417969 283.890625 158.707031 285.78125 C 160.59375 286.15625 161.726562 287.667969 162.105469 289.554688 L 163.617188 305.039062 C 164.371094 310.703125 169.28125 315.234375 174.945312 315.234375 L 199.113281 315.234375 C 204.777344 315.234375 209.6875 310.703125 210.441406 305.039062 L 211.953125 289.554688 C 212.332031 287.667969 213.464844 286.15625 215.351562 285.78125 C 220.640625 284.269531 225.925781 282.003906 230.457031 279.359375 C 231.96875 278.605469 234.234375 278.605469 235.367188 279.738281 L 247.449219 289.554688 C 251.984375 293.332031 258.402344 292.953125 262.554688 288.800781 L 279.929688 271.429688 C 284.082031 267.277344 284.460938 260.855469 280.683594 256.324219 L 270.863281 244.238281 C 270.488281 243.105469 270.488281 241.21875 271.242188 239.707031 C 273.886719 234.796875 275.773438 229.511719 277.660156 224.226562 Z M 187.40625 241.972656 C 162.105469 241.972656 141.335938 221.203125 141.335938 195.902344 C 141.335938 170.601562 162.105469 149.828125 187.40625 149.828125 C 212.707031 149.828125 233.476562 170.601562 233.476562 195.902344 C 233.476562 221.203125 212.707031 241.972656 187.40625 241.972656 Z M 187.40625 241.972656 "/><path style=" stroke:none;fill-rule:nonzero;fill:#233c4f;fill-opacity:1;" d="M 76.003906 84.5 C 135.292969 25.210938 230.457031 23.320312 292.390625 78.457031 L 283.703125 87.140625 C 281.4375 89.40625 280.683594 92.808594 281.4375 95.828125 C 282.195312 98.847656 284.835938 101.113281 287.859375 101.492188 L 328.644531 108.667969 C 329.019531 108.667969 329.777344 108.667969 330.152344 108.667969 C 332.417969 108.667969 334.683594 107.914062 336.195312 106.023438 C 338.085938 104.136719 338.839844 101.113281 338.460938 98.472656 L 331.285156 57.6875 C 330.910156 54.664062 328.644531 52.023438 325.621094 51.265625 C 322.601562 50.511719 319.203125 51.265625 316.9375 53.53125 L 307.871094 62.59375 C 237.253906 -0.46875 128.496094 1.039062 60.519531 69.015625 C 18.601562 110.933594 0.0976562 170.976562 11.050781 229.132812 C 12.183594 234.421875 16.714844 238.199219 21.625 238.199219 C 22.378906 238.199219 23.132812 238.199219 23.511719 237.820312 C 29.554688 236.6875 33.332031 231.023438 32.195312 224.980469 C 22.757812 174 38.996094 121.128906 76.003906 84.5 Z M 76.003906 84.5 "/><path style=" stroke:none;fill-rule:nonzero;fill:#233c4f;fill-opacity:1;" d="M 363.761719 162.292969 C 362.628906 156.25 356.964844 152.472656 350.921875 153.605469 C 344.882812 154.738281 341.105469 160.402344 342.238281 166.445312 C 352.058594 217.804688 335.816406 270.296875 298.808594 307.304688 C 239.519531 366.59375 144.355469 368.484375 82.421875 313.347656 L 91.109375 304.660156 C 93.375 302.394531 94.128906 298.996094 93.375 295.976562 C 92.242188 292.953125 89.976562 290.6875 86.953125 290.3125 L 46.546875 283.136719 C 43.902344 282.757812 40.882812 283.515625 38.996094 285.402344 C 37.105469 287.289062 35.972656 290.3125 36.730469 292.953125 L 43.902344 333.738281 C 44.660156 336.761719 46.546875 339.40625 49.570312 340.160156 C 50.324219 340.539062 51.078125 340.539062 52.210938 340.539062 C 54.476562 340.539062 56.742188 339.78125 58.253906 337.894531 L 67.316406 328.832031 C 101.304688 359.796875 144.355469 375.28125 187.40625 375.28125 C 233.476562 375.28125 279.171875 357.910156 314.292969 322.789062 C 356.210938 280.871094 374.714844 220.824219 363.761719 162.292969 Z M 363.761719 162.292969 "/></g></svg>