<svg xmlns="http://www.w3.org/2000/svg" xmlns:xlink="http://www.w3.org/1999/xlink" width="500" zoomAndPan="magnify" viewBox="0 0 375 374.999991" height="500" preserveAspectRatio="xMidYMid meet" version="1.2"><defs><clipPath id="471fdb489b"><path d="M 33.515625 142 L 341.765625 142 L 341.765625 375 L 33.515625 375 Z M 33.515625 142 "/></clipPath></defs><g id="3fc90fbcd4"><path style=" stroke:none;fill-rule:nonzero;fill:#233c4f;fill-opacity:1;" d="M 66.203125 156.757812 L 113.566406 156.757812 C 114.003906 156.71875 114.4375 156.640625 114.859375 156.523438 C 115.285156 156.402344 115.695312 156.246094 116.089844 156.050781 C 116.484375 155.855469 116.859375 155.625 117.210938 155.359375 C 117.5625 155.09375 117.886719 154.800781 118.1875 154.476562 C 118.484375 154.148438 118.75 153.800781 118.980469 153.425781 C 119.214844 153.050781 119.410156 152.660156 119.570312 152.246094 C 119.730469 151.835938 119.847656 151.414062 119.929688 150.980469 C 120.011719 150.546875 120.050781 150.113281 120.050781 149.671875 C 120.050781 149.230469 120.011719 148.792969 119.929688 148.359375 C 119.847656 147.925781 119.730469 147.503906 119.570312 147.09375 C 119.410156 146.683594 119.214844 146.289062 118.980469 145.917969 C 118.75 145.542969 118.484375 145.191406 118.1875 144.867188 C 117.886719 144.542969 117.5625 144.246094 117.210938 143.980469 C 116.859375 143.71875 116.484375 143.488281 116.089844 143.292969 C 115.695312 143.097656 115.285156 142.941406 114.859375 142.820312 C 114.4375 142.703125 114.003906 142.621094 113.566406 142.582031 L 96.445312 142.582031 L 96.445312 103.335938 C 96.488281 102.84375 96.480469 102.355469 96.421875 101.863281 C 96.363281 101.375 96.253906 100.894531 96.09375 100.425781 C 95.9375 99.960938 95.734375 99.511719 95.480469 99.089844 C 95.230469 98.664062 94.9375 98.269531 94.605469 97.902344 C 94.269531 97.539062 93.902344 97.214844 93.503906 96.925781 C 93.101562 96.636719 92.675781 96.394531 92.222656 96.195312 C 91.773438 95.996094 91.304688 95.847656 90.820312 95.746094 C 90.339844 95.644531 89.847656 95.59375 89.355469 95.59375 C 88.863281 95.59375 88.375 95.644531 87.890625 95.746094 C 87.40625 95.847656 86.941406 95.996094 86.488281 96.195312 C 86.035156 96.394531 85.609375 96.636719 85.207031 96.925781 C 84.808594 97.214844 84.441406 97.539062 84.105469 97.902344 C 83.773438 98.269531 83.480469 98.664062 83.230469 99.089844 C 82.980469 99.511719 82.773438 99.960938 82.617188 100.425781 C 82.457031 100.894531 82.347656 101.375 82.289062 101.863281 C 82.230469 102.355469 82.222656 102.84375 82.269531 103.335938 L 82.269531 142.582031 L 73.261719 142.582031 L 73.261719 96.832031 C 73.261719 96.222656 73.292969 95.617188 73.351562 95.011719 C 73.410156 94.40625 73.5 93.804688 73.617188 93.207031 C 73.738281 92.609375 73.886719 92.019531 74.0625 91.4375 C 74.238281 90.855469 74.441406 90.28125 74.675781 89.71875 C 74.90625 89.15625 75.167969 88.605469 75.453125 88.070312 C 75.738281 87.53125 76.050781 87.011719 76.390625 86.503906 C 76.726562 85.996094 77.089844 85.507812 77.472656 85.039062 C 77.859375 84.566406 78.265625 84.113281 78.699219 83.683594 C 79.128906 83.253906 79.578125 82.84375 80.046875 82.457031 C 80.515625 82.070312 81.003906 81.707031 81.511719 81.367188 C 82.015625 81.027344 82.535156 80.714844 83.074219 80.425781 C 83.609375 80.140625 84.15625 79.878906 84.71875 79.644531 C 85.28125 79.410156 85.855469 79.203125 86.4375 79.023438 C 87.019531 78.847656 87.609375 78.699219 88.203125 78.578125 C 88.800781 78.457031 89.402344 78.367188 90.007812 78.304688 C 90.613281 78.242188 91.222656 78.210938 91.828125 78.210938 L 137.023438 78.210938 C 137.488281 78.226562 137.949219 78.195312 138.40625 78.117188 C 138.863281 78.042969 139.308594 77.921875 139.742188 77.757812 C 140.175781 77.59375 140.589844 77.390625 140.984375 77.144531 C 141.378906 76.898438 141.742188 76.617188 142.082031 76.300781 C 142.417969 75.980469 142.722656 75.632812 142.992188 75.257812 C 143.261719 74.878906 143.492188 74.480469 143.683594 74.058594 C 143.875 73.632812 144.023438 73.199219 144.128906 72.746094 C 144.230469 72.292969 144.292969 71.835938 144.304688 71.371094 C 144.320312 70.910156 144.289062 70.449219 144.214844 69.992188 C 144.136719 69.535156 144.019531 69.085938 143.855469 68.652344 C 143.691406 68.21875 143.484375 67.804688 143.242188 67.414062 C 142.996094 67.019531 142.714844 66.652344 142.394531 66.316406 C 142.078125 65.976562 141.730469 65.671875 141.355469 65.402344 C 140.976562 65.132812 140.578125 64.902344 140.152344 64.710938 C 139.730469 64.523438 139.292969 64.375 138.84375 64.269531 C 138.390625 64.164062 137.933594 64.105469 137.46875 64.089844 L 91.828125 64.089844 C 90.757812 64.09375 89.6875 64.144531 88.617188 64.253906 C 87.550781 64.359375 86.492188 64.519531 85.4375 64.730469 C 84.386719 64.941406 83.347656 65.203125 82.320312 65.515625 C 81.292969 65.828125 80.285156 66.191406 79.296875 66.601562 C 78.304688 67.015625 77.335938 67.472656 76.390625 67.980469 C 75.445312 68.488281 74.527344 69.039062 73.632812 69.636719 C 72.742188 70.234375 71.882812 70.875 71.054688 71.554688 C 70.226562 72.234375 69.433594 72.957031 68.671875 73.714844 C 67.914062 74.476562 67.195312 75.269531 66.515625 76.101562 C 65.835938 76.929688 65.199219 77.792969 64.601562 78.683594 C 64.007812 79.578125 63.457031 80.496094 62.953125 81.441406 C 62.445312 82.390625 61.988281 83.359375 61.578125 84.351562 C 61.167969 85.339844 60.808594 86.351562 60.496094 87.378906 C 60.183594 88.40625 59.925781 89.445312 59.714844 90.496094 C 59.507812 91.550781 59.351562 92.609375 59.246094 93.675781 C 59.140625 94.746094 59.085938 95.816406 59.085938 96.886719 L 59.085938 149.699219 C 59.085938 150.164062 59.132812 150.625 59.222656 151.082031 C 59.316406 151.539062 59.449219 151.984375 59.628906 152.414062 C 59.808594 152.84375 60.027344 153.25 60.289062 153.636719 C 60.546875 154.023438 60.84375 154.382812 61.175781 154.710938 C 61.503906 155.039062 61.863281 155.332031 62.253906 155.589844 C 62.640625 155.84375 63.050781 156.0625 63.484375 156.238281 C 63.914062 156.414062 64.359375 156.542969 64.816406 156.632812 C 65.273438 156.71875 65.738281 156.761719 66.203125 156.757812 Z M 66.203125 156.757812 "/><path style=" stroke:none;fill-rule:nonzero;fill:#233c4f;fill-opacity:1;" d="M 259.988281 58.308594 C 260.933594 58.308594 261.875 58.261719 262.8125 58.171875 C 263.75 58.078125 264.683594 57.941406 265.605469 57.753906 C 266.53125 57.570312 267.445312 57.34375 268.347656 57.070312 C 269.25 56.796875 270.136719 56.476562 271.007812 56.117188 C 271.878906 55.757812 272.730469 55.351562 273.5625 54.910156 C 274.394531 54.464844 275.203125 53.980469 275.988281 53.457031 C 276.773438 52.933594 277.527344 52.371094 278.257812 51.773438 C 278.984375 51.175781 279.683594 50.542969 280.351562 49.875 C 281.019531 49.207031 281.652344 48.511719 282.25 47.78125 C 282.847656 47.050781 283.40625 46.296875 283.933594 45.511719 C 284.457031 44.726562 284.941406 43.917969 285.386719 43.085938 C 285.828125 42.253906 286.230469 41.402344 286.59375 40.53125 C 286.953125 39.660156 287.269531 38.773438 287.546875 37.871094 C 287.820312 36.96875 288.046875 36.054688 288.230469 35.132812 C 288.414062 34.207031 288.554688 33.273438 288.644531 32.335938 C 288.738281 31.398438 288.785156 30.457031 288.785156 29.511719 C 288.785156 28.570312 288.738281 27.628906 288.644531 26.691406 C 288.554688 25.753906 288.414062 24.820312 288.230469 23.894531 C 288.046875 22.96875 287.820312 22.058594 287.546875 21.152344 C 287.269531 20.25 286.953125 19.363281 286.59375 18.492188 C 286.230469 17.621094 285.828125 16.769531 285.386719 15.9375 C 284.941406 15.105469 284.457031 14.300781 283.933594 13.515625 C 283.40625 12.730469 282.847656 11.972656 282.25 11.246094 C 281.652344 10.515625 281.019531 9.820312 280.351562 9.152344 C 279.683594 8.484375 278.984375 7.851562 278.257812 7.253906 C 277.527344 6.65625 276.773438 6.09375 275.988281 5.570312 C 275.203125 5.046875 274.394531 4.5625 273.5625 4.117188 C 272.730469 3.671875 271.878906 3.269531 271.007812 2.910156 C 270.136719 2.546875 269.25 2.230469 268.347656 1.957031 C 267.445312 1.683594 266.53125 1.453125 265.605469 1.269531 C 264.683594 1.085938 263.75 0.949219 262.8125 0.855469 C 261.875 0.765625 260.933594 0.71875 259.988281 0.71875 C 259.046875 0.71875 258.105469 0.765625 257.167969 0.855469 C 256.226562 0.949219 255.296875 1.085938 254.371094 1.269531 C 253.445312 1.453125 252.53125 1.683594 251.628906 1.957031 C 250.726562 2.230469 249.839844 2.546875 248.96875 2.910156 C 248.097656 3.269531 247.246094 3.671875 246.414062 4.117188 C 245.582031 4.5625 244.777344 5.046875 243.992188 5.570312 C 243.207031 6.09375 242.449219 6.65625 241.722656 7.253906 C 240.992188 7.851562 240.292969 8.484375 239.628906 9.152344 C 238.960938 9.820312 238.328125 10.515625 237.730469 11.246094 C 237.132812 11.972656 236.570312 12.730469 236.046875 13.515625 C 235.523438 14.300781 235.039062 15.105469 234.59375 15.9375 C 234.148438 16.769531 233.746094 17.621094 233.386719 18.492188 C 233.023438 19.363281 232.707031 20.25 232.433594 21.152344 C 232.160156 22.058594 231.929688 22.96875 231.746094 23.894531 C 231.5625 24.820312 231.425781 25.753906 231.332031 26.691406 C 231.238281 27.628906 231.195312 28.570312 231.195312 29.511719 C 231.195312 30.457031 231.238281 31.398438 231.332031 32.335938 C 231.425781 33.273438 231.5625 34.207031 231.746094 35.132812 C 231.929688 36.054688 232.160156 36.96875 232.433594 37.871094 C 232.707031 38.773438 233.023438 39.660156 233.386719 40.53125 C 233.746094 41.402344 234.148438 42.253906 234.59375 43.085938 C 235.039062 43.917969 235.523438 44.726562 236.046875 45.511719 C 236.570312 46.296875 237.132812 47.050781 237.730469 47.78125 C 238.328125 48.511719 238.960938 49.207031 239.628906 49.875 C 240.292969 50.542969 240.992188 51.175781 241.722656 51.773438 C 242.449219 52.371094 243.207031 52.933594 243.992188 53.457031 C 244.777344 53.980469 245.582031 54.464844 246.414062 54.910156 C 247.246094 55.351562 248.097656 55.757812 248.96875 56.117188 C 249.839844 56.476562 250.726562 56.796875 251.628906 57.070312 C 252.53125 57.34375 253.445312 57.570312 254.371094 57.753906 C 255.296875 57.941406 256.226562 58.078125 257.167969 58.171875 C 258.105469 58.261719 259.046875 58.308594 259.988281 58.308594 Z M 259.988281 14.894531 C 260.949219 14.894531 261.898438 14.988281 262.839844 15.175781 C 263.78125 15.359375 264.699219 15.636719 265.585938 16.007812 C 266.472656 16.375 267.3125 16.824219 268.113281 17.355469 C 268.910156 17.890625 269.648438 18.496094 270.328125 19.175781 C 271.007812 19.855469 271.613281 20.59375 272.144531 21.390625 C 272.679688 22.1875 273.128906 23.03125 273.496094 23.917969 C 273.863281 24.804688 274.140625 25.71875 274.328125 26.660156 C 274.515625 27.601562 274.609375 28.554688 274.609375 29.511719 C 274.609375 30.472656 274.515625 31.425781 274.328125 32.367188 C 274.140625 33.308594 273.863281 34.222656 273.496094 35.109375 C 273.128906 35.996094 272.679688 36.835938 272.144531 37.636719 C 271.613281 38.433594 271.007812 39.171875 270.328125 39.851562 C 269.648438 40.53125 268.910156 41.136719 268.113281 41.667969 C 267.3125 42.203125 266.472656 42.652344 265.585938 43.019531 C 264.699219 43.386719 263.78125 43.664062 262.839844 43.851562 C 261.898438 44.039062 260.949219 44.132812 259.988281 44.132812 C 259.03125 44.132812 258.078125 44.039062 257.136719 43.851562 C 256.195312 43.664062 255.28125 43.386719 254.394531 43.019531 C 253.507812 42.652344 252.664062 42.203125 251.867188 41.667969 C 251.070312 41.136719 250.332031 40.53125 249.652344 39.851562 C 248.972656 39.171875 248.367188 38.433594 247.832031 37.636719 C 247.300781 36.835938 246.847656 35.996094 246.480469 35.109375 C 246.113281 34.222656 245.835938 33.308594 245.648438 32.367188 C 245.460938 31.425781 245.371094 30.472656 245.371094 29.511719 C 245.371094 28.554688 245.460938 27.601562 245.648438 26.660156 C 245.835938 25.71875 246.113281 24.804688 246.480469 23.917969 C 246.847656 23.03125 247.300781 22.1875 247.832031 21.390625 C 248.367188 20.59375 248.972656 19.855469 249.652344 19.175781 C 250.332031 18.496094 251.070312 17.890625 251.867188 17.355469 C 252.664062 16.824219 253.507812 16.375 254.394531 16.007812 C 255.28125 15.636719 256.195312 15.359375 257.136719 15.175781 C 258.078125 14.988281 259.03125 14.894531 259.988281 14.894531 Z M 259.988281 14.894531 "/><path style=" stroke:none;fill-rule:nonzero;fill:#233c4f;fill-opacity:1;" d="M 236.53125 78.542969 L 281.667969 78.542969 C 282.277344 78.546875 282.886719 78.578125 283.492188 78.636719 C 284.097656 78.699219 284.699219 78.789062 285.292969 78.910156 C 285.890625 79.03125 286.480469 79.179688 287.0625 79.359375 C 287.644531 79.535156 288.21875 79.742188 288.777344 79.976562 C 289.339844 80.210938 289.890625 80.472656 290.425781 80.761719 C 290.960938 81.046875 291.484375 81.363281 291.988281 81.703125 C 292.496094 82.039062 292.980469 82.402344 293.453125 82.789062 C 293.921875 83.175781 294.371094 83.585938 294.800781 84.019531 C 295.230469 84.449219 295.640625 84.898438 296.023438 85.371094 C 296.410156 85.84375 296.773438 86.332031 297.109375 86.835938 C 297.445312 87.34375 297.757812 87.867188 298.046875 88.402344 C 298.332031 88.941406 298.589844 89.488281 298.824219 90.050781 C 299.058594 90.613281 299.261719 91.1875 299.4375 91.769531 C 299.613281 92.351562 299.761719 92.941406 299.878906 93.539062 C 300 94.136719 300.085938 94.738281 300.148438 95.34375 C 300.207031 95.949219 300.238281 96.558594 300.238281 97.167969 L 300.238281 142.917969 L 291.230469 142.917969 L 291.230469 103.335938 C 291.273438 102.84375 291.265625 102.355469 291.207031 101.863281 C 291.148438 101.375 291.042969 100.894531 290.882812 100.425781 C 290.726562 99.960938 290.519531 99.511719 290.269531 99.089844 C 290.019531 98.664062 289.726562 98.269531 289.390625 97.902344 C 289.058594 97.539062 288.691406 97.214844 288.289062 96.925781 C 287.890625 96.636719 287.460938 96.394531 287.011719 96.195312 C 286.558594 95.996094 286.089844 95.847656 285.609375 95.746094 C 285.125 95.644531 284.636719 95.59375 284.144531 95.59375 C 283.648438 95.59375 283.160156 95.644531 282.679688 95.746094 C 282.195312 95.847656 281.726562 95.996094 281.277344 96.195312 C 280.824219 96.394531 280.398438 96.636719 279.996094 96.925781 C 279.59375 97.214844 279.226562 97.539062 278.894531 97.902344 C 278.5625 98.269531 278.269531 98.664062 278.019531 99.089844 C 277.765625 99.511719 277.5625 99.960938 277.402344 100.425781 C 277.246094 100.894531 277.136719 101.375 277.078125 101.863281 C 277.019531 102.355469 277.011719 102.84375 277.054688 103.335938 L 277.054688 142.582031 L 259.988281 142.582031 C 259.496094 142.539062 259.007812 142.546875 258.515625 142.605469 C 258.027344 142.664062 257.546875 142.773438 257.078125 142.929688 C 256.613281 143.089844 256.164062 143.292969 255.742188 143.546875 C 255.316406 143.796875 254.921875 144.089844 254.558594 144.421875 C 254.191406 144.753906 253.867188 145.121094 253.578125 145.523438 C 253.292969 145.925781 253.046875 146.351562 252.847656 146.804688 C 252.648438 147.253906 252.5 147.722656 252.398438 148.207031 C 252.296875 148.6875 252.246094 149.175781 252.246094 149.671875 C 252.246094 150.164062 252.296875 150.652344 252.398438 151.136719 C 252.5 151.621094 252.648438 152.085938 252.847656 152.539062 C 253.046875 152.992188 253.292969 153.417969 253.578125 153.816406 C 253.867188 154.21875 254.191406 154.585938 254.558594 154.917969 C 254.921875 155.253906 255.316406 155.546875 255.742188 155.796875 C 256.164062 156.046875 256.613281 156.253906 257.078125 156.410156 C 257.546875 156.570312 258.027344 156.675781 258.515625 156.734375 C 259.007812 156.792969 259.496094 156.800781 259.988281 156.757812 L 307.351562 156.757812 C 307.816406 156.757812 308.273438 156.714844 308.730469 156.621094 C 309.183594 156.53125 309.625 156.398438 310.054688 156.222656 C 310.480469 156.042969 310.890625 155.828125 311.273438 155.570312 C 311.660156 155.3125 312.015625 155.019531 312.34375 154.691406 C 312.671875 154.363281 312.964844 154.007812 313.222656 153.621094 C 313.480469 153.234375 313.695312 152.828125 313.875 152.402344 C 314.050781 151.972656 314.1875 151.53125 314.277344 151.074219 C 314.367188 150.621094 314.410156 150.164062 314.410156 149.699219 L 314.410156 96.832031 C 314.410156 95.757812 314.359375 94.6875 314.253906 93.621094 C 314.148438 92.554688 313.992188 91.492188 313.78125 90.441406 C 313.574219 89.386719 313.3125 88.347656 313.003906 87.320312 C 312.691406 86.296875 312.332031 85.285156 311.921875 84.292969 C 311.511719 83.300781 311.054688 82.332031 310.546875 81.386719 C 310.042969 80.441406 309.492188 79.519531 308.894531 78.628906 C 308.300781 77.734375 307.664062 76.875 306.984375 76.042969 C 306.300781 75.214844 305.582031 74.421875 304.824219 73.660156 C 304.066406 72.902344 303.273438 72.179688 302.445312 71.5 C 301.617188 70.816406 300.757812 70.179688 299.863281 69.582031 C 298.972656 68.984375 298.054688 68.433594 297.109375 67.925781 C 296.164062 67.417969 295.195312 66.960938 294.203125 66.546875 C 293.214844 66.136719 292.203125 65.773438 291.179688 65.460938 C 290.152344 65.148438 289.113281 64.886719 288.058594 64.675781 C 287.007812 64.464844 285.949219 64.304688 284.878906 64.199219 C 283.8125 64.089844 282.742188 64.035156 281.667969 64.035156 L 235.808594 64.035156 C 235.332031 64.058594 234.863281 64.128906 234.398438 64.246094 C 233.9375 64.359375 233.488281 64.519531 233.058594 64.726562 C 232.628906 64.929688 232.222656 65.171875 231.839844 65.457031 C 231.457031 65.742188 231.105469 66.0625 230.785156 66.414062 C 230.464844 66.769531 230.179688 67.148438 229.9375 67.558594 C 229.691406 67.96875 229.488281 68.398438 229.328125 68.847656 C 229.167969 69.296875 229.054688 69.757812 228.984375 70.226562 C 228.914062 70.699219 228.890625 71.175781 228.914062 71.652344 C 228.9375 72.125 229.007812 72.597656 229.125 73.058594 C 229.242188 73.519531 229.402344 73.96875 229.605469 74.398438 C 229.808594 74.828125 230.054688 75.238281 230.339844 75.621094 C 230.621094 76.003906 230.941406 76.355469 231.292969 76.675781 C 231.648438 76.996094 232.03125 77.277344 232.4375 77.523438 C 232.847656 77.765625 233.277344 77.96875 233.726562 78.128906 C 234.175781 78.289062 234.636719 78.40625 235.109375 78.476562 C 235.578125 78.542969 236.054688 78.566406 236.53125 78.542969 Z M 236.53125 78.542969 "/><path style=" stroke:none;fill-rule:nonzero;fill:#233c4f;fill-opacity:1;" d="M 113.566406 58.308594 C 114.507812 58.308594 115.449219 58.257812 116.386719 58.164062 C 117.324219 58.070312 118.253906 57.929688 119.179688 57.746094 C 120.105469 57.558594 121.015625 57.328125 121.917969 57.054688 C 122.820312 56.777344 123.707031 56.460938 124.578125 56.097656 C 125.445312 55.734375 126.296875 55.332031 127.128906 54.886719 C 127.957031 54.4375 128.765625 53.953125 129.546875 53.429688 C 130.332031 52.902344 131.085938 52.339844 131.8125 51.742188 C 132.542969 51.144531 133.238281 50.507812 133.902344 49.84375 C 134.570312 49.175781 135.199219 48.476562 135.796875 47.746094 C 136.394531 47.015625 136.953125 46.257812 137.476562 45.472656 C 138 44.691406 138.480469 43.882812 138.925781 43.050781 C 139.367188 42.21875 139.769531 41.367188 140.128906 40.496094 C 140.488281 39.621094 140.804688 38.734375 141.078125 37.832031 C 141.347656 36.929688 141.578125 36.015625 141.757812 35.09375 C 141.941406 34.167969 142.078125 33.234375 142.171875 32.296875 C 142.261719 31.359375 142.304688 30.417969 142.304688 29.476562 C 142.304688 28.535156 142.257812 27.59375 142.164062 26.65625 C 142.070312 25.71875 141.929688 24.785156 141.746094 23.863281 C 141.558594 22.9375 141.332031 22.023438 141.054688 21.121094 C 140.78125 20.21875 140.460938 19.335938 140.101562 18.464844 C 139.738281 17.59375 139.335938 16.742188 138.890625 15.910156 C 138.445312 15.082031 137.960938 14.273438 137.4375 13.488281 C 136.910156 12.707031 136.347656 11.953125 135.75 11.222656 C 135.152344 10.496094 134.519531 9.796875 133.851562 9.132812 C 133.183594 8.464844 132.484375 7.835938 131.757812 7.238281 C 131.027344 6.640625 130.269531 6.078125 129.488281 5.554688 C 128.703125 5.035156 127.894531 4.550781 127.0625 4.105469 C 126.230469 3.664062 125.378906 3.261719 124.507812 2.902344 C 123.636719 2.539062 122.75 2.222656 121.847656 1.949219 C 120.945312 1.679688 120.03125 1.449219 119.105469 1.265625 C 118.183594 1.082031 117.25 0.945312 116.3125 0.855469 C 115.375 0.761719 114.433594 0.71875 113.492188 0.71875 C 112.546875 0.71875 111.609375 0.765625 110.671875 0.859375 C 109.730469 0.949219 108.800781 1.089844 107.875 1.273438 C 106.953125 1.457031 106.039062 1.6875 105.136719 1.960938 C 104.234375 2.234375 103.347656 2.554688 102.476562 2.914062 C 101.605469 3.277344 100.753906 3.679688 99.925781 4.125 C 99.09375 4.570312 98.285156 5.054688 97.503906 5.578125 C 96.71875 6.101562 95.960938 6.664062 95.234375 7.261719 C 94.503906 7.859375 93.808594 8.492188 93.140625 9.15625 C 92.476562 9.824219 91.84375 10.523438 91.246094 11.25 C 90.648438 11.980469 90.085938 12.738281 89.5625 13.519531 C 89.039062 14.304688 88.554688 15.113281 88.113281 15.945312 C 87.667969 16.777344 87.265625 17.625 86.902344 18.496094 C 86.542969 19.367188 86.226562 20.253906 85.953125 21.15625 C 85.679688 22.058594 85.449219 22.972656 85.265625 23.898438 C 85.082031 24.824219 84.945312 25.753906 84.851562 26.691406 C 84.761719 27.628906 84.714844 28.570312 84.714844 29.511719 C 84.714844 30.457031 84.765625 31.398438 84.859375 32.335938 C 84.953125 33.277344 85.09375 34.207031 85.277344 35.132812 C 85.464844 36.058594 85.695312 36.972656 85.96875 37.875 C 86.246094 38.777344 86.5625 39.664062 86.925781 40.535156 C 87.289062 41.410156 87.691406 42.261719 88.140625 43.089844 C 88.585938 43.921875 89.070312 44.730469 89.59375 45.515625 C 90.121094 46.300781 90.683594 47.054688 91.28125 47.785156 C 91.882812 48.511719 92.515625 49.210938 93.183594 49.878906 C 93.851562 50.542969 94.550781 51.175781 95.28125 51.773438 C 96.011719 52.375 96.769531 52.933594 97.554688 53.457031 C 98.339844 53.980469 99.148438 54.464844 99.980469 54.910156 C 100.8125 55.355469 101.664062 55.757812 102.539062 56.117188 C 103.410156 56.480469 104.296875 56.796875 105.199219 57.070312 C 106.101562 57.34375 107.019531 57.570312 107.945312 57.753906 C 108.867188 57.941406 109.800781 58.078125 110.742188 58.171875 C 111.679688 58.261719 112.621094 58.308594 113.566406 58.308594 Z M 113.566406 14.894531 C 114.527344 14.882812 115.480469 14.964844 116.425781 15.144531 C 117.375 15.320312 118.292969 15.589844 119.183594 15.945312 C 120.078125 16.304688 120.925781 16.75 121.734375 17.277344 C 122.539062 17.800781 123.285156 18.402344 123.972656 19.078125 C 124.65625 19.75 125.273438 20.484375 125.8125 21.28125 C 126.355469 22.074219 126.816406 22.914062 127.191406 23.800781 C 127.566406 24.6875 127.851562 25.601562 128.046875 26.542969 C 128.242188 27.484375 128.34375 28.4375 128.351562 29.402344 C 128.359375 30.363281 128.273438 31.316406 128.089844 32.261719 C 127.910156 33.207031 127.640625 34.125 127.277344 35.015625 C 126.914062 35.910156 126.46875 36.753906 125.9375 37.558594 C 125.410156 38.363281 124.804688 39.105469 124.128906 39.789062 C 123.453125 40.476562 122.714844 41.085938 121.917969 41.625 C 121.121094 42.164062 120.277344 42.621094 119.390625 42.992188 C 118.503906 43.363281 117.589844 43.648438 116.644531 43.839844 C 115.703125 44.03125 114.75 44.128906 113.789062 44.132812 C 112.824219 44.136719 111.871094 44.046875 110.929688 43.859375 C 109.984375 43.675781 109.066406 43.402344 108.175781 43.035156 C 107.285156 42.671875 106.441406 42.222656 105.640625 41.6875 C 104.835938 41.15625 104.097656 40.550781 103.414062 39.871094 C 102.734375 39.191406 102.125 38.453125 101.585938 37.652344 C 101.050781 36.851562 100.597656 36.007812 100.230469 35.121094 C 99.859375 34.230469 99.582031 33.316406 99.394531 32.371094 C 99.207031 31.429688 99.113281 30.476562 99.113281 29.511719 C 99.113281 28.558594 99.203125 27.617188 99.386719 26.679688 C 99.574219 25.746094 99.847656 24.839844 100.207031 23.957031 C 100.570312 23.074219 101.015625 22.238281 101.539062 21.441406 C 102.066406 20.648438 102.664062 19.910156 103.335938 19.234375 C 104.003906 18.554688 104.734375 17.949219 105.523438 17.414062 C 106.3125 16.878906 107.144531 16.425781 108.023438 16.054688 C 108.898438 15.679688 109.804688 15.398438 110.738281 15.203125 C 111.667969 15.007812 112.613281 14.902344 113.566406 14.894531 Z M 113.566406 14.894531 "/><path style=" stroke:none;fill-rule:nonzero;fill:#233c4f;fill-opacity:1;" d="M 211.738281 75.542969 L 161.707031 75.542969 C 160.503906 75.542969 159.308594 75.601562 158.113281 75.71875 C 156.917969 75.835938 155.734375 76.011719 154.554688 76.246094 C 153.378906 76.480469 152.214844 76.769531 151.066406 77.117188 C 149.917969 77.464844 148.789062 77.871094 147.679688 78.328125 C 146.570312 78.789062 145.484375 79.300781 144.425781 79.867188 C 143.367188 80.429688 142.339844 81.046875 141.339844 81.714844 C 140.339844 82.378906 139.378906 83.09375 138.449219 83.855469 C 137.519531 84.617188 136.632812 85.417969 135.78125 86.269531 C 134.933594 87.117188 134.128906 88.003906 133.363281 88.929688 C 132.601562 89.859375 131.886719 90.820312 131.21875 91.820312 C 130.550781 92.816406 129.933594 93.84375 129.367188 94.902344 C 128.800781 95.960938 128.285156 97.042969 127.824219 98.152344 C 127.363281 99.261719 126.960938 100.390625 126.609375 101.539062 C 126.261719 102.6875 125.96875 103.847656 125.730469 105.027344 C 125.496094 106.203125 125.316406 107.386719 125.199219 108.582031 C 125.078125 109.777344 125.019531 110.976562 125.015625 112.175781 L 125.015625 178.605469 C 125.023438 179.082031 125.078125 179.554688 125.179688 180.023438 C 125.28125 180.492188 125.429688 180.941406 125.621094 181.382812 C 125.8125 181.820312 126.046875 182.234375 126.320312 182.625 C 126.597656 183.015625 126.90625 183.375 127.253906 183.703125 C 127.601562 184.035156 127.976562 184.324219 128.382812 184.578125 C 128.789062 184.832031 129.214844 185.042969 129.660156 185.210938 C 130.109375 185.378906 130.570312 185.503906 131.042969 185.578125 C 131.511719 185.65625 131.988281 185.683594 132.464844 185.664062 L 241.367188 185.664062 C 241.828125 185.660156 242.289062 185.613281 242.742188 185.519531 C 243.195312 185.429688 243.632812 185.292969 244.058594 185.113281 C 244.488281 184.933594 244.890625 184.714844 245.277344 184.457031 C 245.660156 184.199219 246.015625 183.910156 246.34375 183.582031 C 246.667969 183.253906 246.960938 182.898438 247.21875 182.515625 C 247.476562 182.128906 247.695312 181.726562 247.875 181.296875 C 248.054688 180.871094 248.1875 180.433594 248.28125 179.980469 C 248.375 179.527344 248.421875 179.066406 248.425781 178.605469 L 248.425781 112.175781 C 248.425781 110.976562 248.363281 109.777344 248.246094 108.582031 C 248.125 107.386719 247.949219 106.203125 247.710938 105.027344 C 247.476562 103.847656 247.183594 102.6875 246.832031 101.539062 C 246.484375 100.390625 246.078125 99.261719 245.617188 98.152344 C 245.15625 97.042969 244.644531 95.960938 244.078125 94.902344 C 243.507812 93.84375 242.890625 92.816406 242.222656 91.820312 C 241.554688 90.820312 240.839844 89.859375 240.078125 88.929688 C 239.316406 88.003906 238.511719 87.117188 237.660156 86.269531 C 236.8125 85.417969 235.921875 84.617188 234.992188 83.855469 C 234.066406 83.09375 233.101562 82.378906 232.101562 81.714844 C 231.105469 81.046875 230.078125 80.429688 229.015625 79.867188 C 227.957031 79.300781 226.875 78.789062 225.765625 78.328125 C 224.65625 77.871094 223.527344 77.464844 222.378906 77.117188 C 221.230469 76.769531 220.066406 76.480469 218.886719 76.246094 C 217.710938 76.011719 216.523438 75.835938 215.328125 75.71875 C 214.136719 75.601562 212.9375 75.542969 211.738281 75.542969 Z M 234.25 171.433594 L 221.410156 171.433594 L 221.410156 126.519531 C 221.453125 126.027344 221.445312 125.535156 221.386719 125.042969 C 221.328125 124.554688 221.21875 124.074219 221.0625 123.609375 C 220.902344 123.140625 220.699219 122.695312 220.449219 122.269531 C 220.195312 121.84375 219.90625 121.449219 219.570312 121.085938 C 219.238281 120.722656 218.871094 120.394531 218.46875 120.105469 C 218.066406 119.820312 217.640625 119.578125 217.191406 119.378906 C 216.738281 119.179688 216.269531 119.027344 215.789062 118.925781 C 215.304688 118.824219 214.816406 118.773438 214.320312 118.773438 C 213.828125 118.773438 213.339844 118.824219 212.855469 118.925781 C 212.375 119.027344 211.90625 119.179688 211.453125 119.378906 C 211.003906 119.578125 210.578125 119.820312 210.175781 120.105469 C 209.773438 120.394531 209.40625 120.722656 209.074219 121.085938 C 208.738281 121.449219 208.449219 121.84375 208.195312 122.269531 C 207.945312 122.695312 207.742188 123.140625 207.582031 123.609375 C 207.425781 124.074219 207.316406 124.554688 207.257812 125.042969 C 207.199219 125.535156 207.191406 126.027344 207.234375 126.519531 L 207.234375 171.433594 L 165.820312 171.433594 L 165.820312 126.519531 C 165.863281 126.027344 165.855469 125.535156 165.796875 125.042969 C 165.738281 124.554688 165.628906 124.074219 165.472656 123.609375 C 165.3125 123.140625 165.109375 122.695312 164.859375 122.269531 C 164.605469 121.84375 164.3125 121.449219 163.980469 121.085938 C 163.648438 120.722656 163.28125 120.394531 162.878906 120.105469 C 162.476562 119.820312 162.050781 119.578125 161.601562 119.378906 C 161.148438 119.179688 160.679688 119.027344 160.199219 118.925781 C 159.714844 118.824219 159.226562 118.773438 158.730469 118.773438 C 158.238281 118.773438 157.75 118.824219 157.265625 118.925781 C 156.785156 119.027344 156.316406 119.179688 155.863281 119.378906 C 155.414062 119.578125 154.984375 119.820312 154.585938 120.105469 C 154.183594 120.394531 153.816406 120.722656 153.484375 121.085938 C 153.148438 121.449219 152.859375 121.84375 152.605469 122.269531 C 152.355469 122.695312 152.152344 123.140625 151.992188 123.609375 C 151.835938 124.074219 151.726562 124.554688 151.667969 125.042969 C 151.609375 125.535156 151.601562 126.027344 151.644531 126.519531 L 151.644531 171.433594 L 139.304688 171.433594 L 139.304688 112.175781 C 139.304688 111.449219 139.339844 110.722656 139.410156 109.996094 C 139.480469 109.269531 139.589844 108.550781 139.730469 107.835938 C 139.871094 107.125 140.050781 106.417969 140.261719 105.722656 C 140.472656 105.023438 140.71875 104.339844 140.996094 103.667969 C 141.273438 102.992188 141.585938 102.335938 141.929688 101.695312 C 142.273438 101.050781 142.644531 100.425781 143.050781 99.820312 C 143.457031 99.214844 143.890625 98.632812 144.351562 98.070312 C 144.8125 97.507812 145.300781 96.96875 145.816406 96.453125 C 146.332031 95.9375 146.871094 95.449219 147.433594 94.988281 C 147.996094 94.523438 148.582031 94.089844 149.1875 93.6875 C 149.792969 93.28125 150.414062 92.910156 151.058594 92.566406 C 151.699219 92.222656 152.355469 91.910156 153.03125 91.632812 C 153.703125 91.351562 154.386719 91.109375 155.085938 90.898438 C 155.78125 90.6875 156.488281 90.507812 157.203125 90.367188 C 157.914062 90.226562 158.636719 90.117188 159.359375 90.046875 C 160.085938 89.976562 160.8125 89.941406 161.539062 89.941406 L 211.570312 89.941406 C 212.300781 89.941406 213.03125 89.976562 213.761719 90.046875 C 214.488281 90.117188 215.210938 90.222656 215.929688 90.363281 C 216.648438 90.507812 217.355469 90.683594 218.054688 90.894531 C 218.757812 91.105469 219.445312 91.347656 220.121094 91.625 C 220.800781 91.902344 221.460938 92.214844 222.109375 92.554688 C 222.753906 92.898438 223.382812 93.273438 223.992188 93.675781 C 224.601562 94.078125 225.191406 94.511719 225.761719 94.972656 C 226.328125 95.433594 226.871094 95.921875 227.394531 96.433594 C 227.914062 96.949219 228.40625 97.488281 228.875 98.050781 C 229.34375 98.613281 229.785156 99.195312 230.195312 99.800781 C 230.605469 100.40625 230.988281 101.03125 231.335938 101.671875 C 231.6875 102.3125 232.003906 102.972656 232.292969 103.644531 C 232.578125 104.320312 232.832031 105.003906 233.050781 105.703125 C 233.269531 106.398438 233.453125 107.105469 233.605469 107.824219 C 233.753906 108.539062 233.871094 109.261719 233.949219 109.988281 C 234.03125 110.714844 234.074219 111.445312 234.085938 112.175781 Z M 234.25 171.433594 "/><path style=" stroke:none;fill-rule:nonzero;fill:#233c4f;fill-opacity:1;" d="M 186.777344 70.984375 C 187.832031 70.984375 188.882812 70.933594 189.929688 70.832031 C 190.976562 70.730469 192.019531 70.578125 193.050781 70.375 C 194.085938 70.171875 195.105469 69.917969 196.113281 69.613281 C 197.121094 69.308594 198.113281 68.957031 199.085938 68.554688 C 200.058594 68.152344 201.011719 67.707031 201.941406 67.210938 C 202.871094 66.714844 203.773438 66.175781 204.648438 65.589844 C 205.527344 65.007812 206.371094 64.382812 207.1875 63.714844 C 208 63.046875 208.78125 62.34375 209.527344 61.597656 C 210.273438 60.855469 210.980469 60.078125 211.648438 59.261719 C 212.316406 58.449219 212.945312 57.605469 213.53125 56.730469 C 214.117188 55.855469 214.660156 54.953125 215.15625 54.023438 C 215.652344 53.097656 216.105469 52.148438 216.507812 51.175781 C 216.910156 50.203125 217.265625 49.210938 217.574219 48.203125 C 217.878906 47.195312 218.136719 46.175781 218.34375 45.144531 C 218.546875 44.109375 218.703125 43.070312 218.808594 42.023438 C 218.910156 40.972656 218.964844 39.925781 218.964844 38.871094 C 218.964844 37.816406 218.914062 36.765625 218.8125 35.71875 C 218.707031 34.671875 218.554688 33.628906 218.347656 32.597656 C 218.144531 31.566406 217.890625 30.542969 217.582031 29.535156 C 217.277344 28.527344 216.925781 27.539062 216.523438 26.566406 C 216.117188 25.59375 215.667969 24.640625 215.171875 23.710938 C 214.675781 22.78125 214.136719 21.878906 213.550781 21.003906 C 212.964844 20.128906 212.339844 19.285156 211.671875 18.46875 C 211.003906 17.65625 210.296875 16.875 209.554688 16.132812 C 208.808594 15.386719 208.027344 14.679688 207.214844 14.011719 C 206.402344 13.34375 205.554688 12.71875 204.679688 12.132812 C 203.804688 11.550781 202.902344 11.007812 201.972656 10.511719 C 201.042969 10.015625 200.09375 9.566406 199.121094 9.164062 C 198.148438 8.761719 197.15625 8.40625 196.148438 8.101562 C 195.140625 7.796875 194.121094 7.539062 193.085938 7.335938 C 192.054688 7.132812 191.015625 6.976562 189.964844 6.875 C 188.917969 6.773438 187.867188 6.71875 186.8125 6.722656 C 185.761719 6.722656 184.710938 6.773438 183.664062 6.878906 C 182.613281 6.980469 181.574219 7.136719 180.542969 7.34375 C 179.507812 7.550781 178.488281 7.804688 177.480469 8.113281 C 176.472656 8.417969 175.484375 8.773438 174.511719 9.179688 C 173.539062 9.582031 172.589844 10.03125 171.660156 10.53125 C 170.730469 11.027344 169.828125 11.570312 168.953125 12.15625 C 168.078125 12.742188 167.234375 13.367188 166.421875 14.035156 C 165.609375 14.707031 164.832031 15.414062 164.085938 16.160156 C 163.34375 16.902344 162.636719 17.683594 161.96875 18.5 C 161.304688 19.3125 160.675781 20.160156 160.09375 21.035156 C 159.511719 21.914062 158.96875 22.816406 158.476562 23.746094 C 157.980469 24.675781 157.53125 25.625 157.128906 26.597656 C 156.726562 27.574219 156.375 28.5625 156.070312 29.570312 C 155.765625 30.578125 155.511719 31.601562 155.308594 32.632812 C 155.105469 33.667969 154.953125 34.707031 154.851562 35.757812 C 154.75 36.804688 154.699219 37.855469 154.703125 38.90625 C 154.703125 39.957031 154.757812 41.003906 154.863281 42.050781 C 154.964844 43.09375 155.121094 44.132812 155.328125 45.160156 C 155.535156 46.191406 155.789062 47.207031 156.09375 48.210938 C 156.402344 49.21875 156.753906 50.203125 157.160156 51.175781 C 157.5625 52.144531 158.011719 53.089844 158.503906 54.015625 C 159 54.941406 159.539062 55.84375 160.125 56.714844 C 160.707031 57.585938 161.332031 58.429688 162 59.242188 C 162.664062 60.054688 163.371094 60.828125 164.113281 61.574219 C 164.855469 62.316406 165.632812 63.019531 166.445312 63.683594 C 167.253906 64.351562 168.097656 64.976562 168.96875 65.5625 C 169.84375 66.144531 170.742188 66.683594 171.667969 67.179688 C 172.59375 67.675781 173.542969 68.125 174.511719 68.527344 C 175.480469 68.929688 176.46875 69.285156 177.472656 69.589844 C 178.476562 69.894531 179.492188 70.152344 180.523438 70.359375 C 181.554688 70.5625 182.589844 70.71875 183.636719 70.824219 C 184.679688 70.929688 185.726562 70.980469 186.777344 70.984375 Z M 204.734375 38.90625 C 204.734375 39.496094 204.703125 40.082031 204.644531 40.667969 C 204.589844 41.253906 204.503906 41.835938 204.386719 42.414062 C 204.273438 42.988281 204.128906 43.558594 203.957031 44.125 C 203.789062 44.6875 203.589844 45.238281 203.363281 45.785156 C 203.140625 46.328125 202.886719 46.859375 202.609375 47.378906 C 202.332031 47.894531 202.03125 48.398438 201.703125 48.890625 C 201.375 49.378906 201.027344 49.851562 200.652344 50.304688 C 200.277344 50.757812 199.882812 51.195312 199.46875 51.609375 C 199.050781 52.027344 198.613281 52.421875 198.160156 52.792969 C 197.703125 53.167969 197.234375 53.515625 196.742188 53.84375 C 196.253906 54.171875 195.75 54.472656 195.230469 54.75 C 194.710938 55.027344 194.179688 55.277344 193.636719 55.5 C 193.09375 55.726562 192.539062 55.925781 191.976562 56.09375 C 191.410156 56.265625 190.839844 56.40625 190.265625 56.523438 C 189.6875 56.636719 189.105469 56.722656 188.519531 56.777344 C 187.933594 56.835938 187.347656 56.863281 186.757812 56.863281 C 186.171875 56.863281 185.582031 56.832031 184.996094 56.773438 C 184.414062 56.714844 183.832031 56.628906 183.253906 56.515625 C 182.675781 56.398438 182.105469 56.253906 181.542969 56.082031 C 180.980469 55.914062 180.429688 55.714844 179.882812 55.488281 C 179.339844 55.261719 178.808594 55.011719 178.292969 54.730469 C 177.773438 54.453125 177.269531 54.152344 176.78125 53.824219 C 176.292969 53.496094 175.820312 53.144531 175.367188 52.769531 C 174.910156 52.398438 174.476562 52 174.0625 51.585938 C 173.644531 51.167969 173.25 50.730469 172.878906 50.277344 C 172.507812 49.820312 172.15625 49.347656 171.832031 48.859375 C 171.503906 48.367188 171.203125 47.863281 170.925781 47.34375 C 170.652344 46.824219 170.398438 46.292969 170.175781 45.75 C 169.953125 45.203125 169.753906 44.652344 169.585938 44.085938 C 169.414062 43.523438 169.273438 42.953125 169.160156 42.375 C 169.046875 41.800781 168.960938 41.21875 168.90625 40.632812 C 168.847656 40.046875 168.820312 39.460938 168.820312 38.871094 C 168.824219 38.28125 168.851562 37.695312 168.910156 37.109375 C 168.972656 36.523438 169.058594 35.941406 169.175781 35.367188 C 169.289062 34.789062 169.433594 34.21875 169.605469 33.65625 C 169.777344 33.09375 169.976562 32.542969 170.203125 31.996094 C 170.429688 31.453125 170.683594 30.925781 170.960938 30.40625 C 171.242188 29.886719 171.542969 29.382812 171.871094 28.894531 C 172.199219 28.40625 172.550781 27.9375 172.925781 27.480469 C 173.300781 27.027344 173.695312 26.59375 174.113281 26.179688 C 174.53125 25.761719 174.96875 25.371094 175.421875 24.996094 C 175.878906 24.625 176.351562 24.277344 176.84375 23.953125 C 177.332031 23.625 177.835938 23.324219 178.355469 23.050781 C 178.875 22.773438 179.410156 22.523438 179.953125 22.300781 C 180.496094 22.074219 181.050781 21.878906 181.613281 21.710938 C 182.179688 21.542969 182.75 21.398438 183.328125 21.285156 C 183.902344 21.171875 184.484375 21.089844 185.070312 21.035156 C 185.65625 20.976562 186.246094 20.949219 186.832031 20.953125 C 187.421875 20.953125 188.007812 20.980469 188.589844 21.039062 C 189.175781 21.097656 189.753906 21.183594 190.332031 21.296875 C 190.90625 21.414062 191.476562 21.554688 192.039062 21.726562 C 192.601562 21.898438 193.152344 22.09375 193.695312 22.320312 C 194.238281 22.546875 194.769531 22.796875 195.285156 23.074219 C 195.804688 23.351562 196.308594 23.652344 196.796875 23.980469 C 197.28125 24.308594 197.753906 24.65625 198.207031 25.03125 C 198.660156 25.402344 199.09375 25.796875 199.511719 26.214844 C 199.925781 26.628906 200.316406 27.066406 200.691406 27.519531 C 201.0625 27.976562 201.410156 28.449219 201.734375 28.9375 C 202.0625 29.425781 202.363281 29.929688 202.636719 30.449219 C 202.914062 30.964844 203.164062 31.496094 203.386719 32.039062 C 203.609375 32.585938 203.804688 33.136719 203.976562 33.699219 C 204.144531 34.261719 204.285156 34.832031 204.398438 35.40625 C 204.511719 35.984375 204.597656 36.566406 204.652344 37.148438 C 204.707031 37.734375 204.734375 38.320312 204.734375 38.90625 Z M 204.734375 38.90625 "/><g clip-rule="nonzero" clip-path="url(#471fdb489b)"><path style=" stroke:none;fill-rule:nonzero;fill:#233c4f;fill-opacity:1;" d="M 335.59375 145.695312 C 334.925781 144.726562 334.070312 143.964844 333.027344 143.414062 C 331.988281 142.863281 330.878906 142.585938 329.699219 142.582031 C 329.070312 142.621094 328.457031 142.738281 327.859375 142.9375 C 327.261719 143.136719 326.699219 143.40625 326.171875 143.753906 C 325.644531 144.101562 325.171875 144.511719 324.753906 144.984375 C 324.335938 145.453125 323.988281 145.972656 323.707031 146.535156 C 323.421875 147.097656 323.21875 147.6875 323.09375 148.308594 C 322.96875 148.925781 322.921875 149.546875 322.960938 150.175781 C 323 150.804688 323.117188 151.417969 323.320312 152.015625 C 323.519531 152.613281 323.792969 153.175781 324.140625 153.703125 C 325.09375 154.992188 325.832031 156.394531 326.355469 157.914062 C 326.875 159.429688 327.15625 160.992188 327.199219 162.59375 C 327.042969 164.863281 326.488281 167.027344 325.527344 169.089844 C 324.570312 171.148438 323.273438 172.96875 321.640625 174.546875 C 304.292969 193.390625 254.929688 206.902344 199.0625 208.570312 L 197.894531 208.570312 C 194.1875 208.570312 190.632812 208.570312 187.222656 208.570312 C 183.609375 208.570312 180.105469 208.570312 176.546875 208.570312 L 175.382812 208.570312 C 119.792969 206.902344 70.09375 193.390625 52.75 174.546875 C 51.105469 172.976562 49.800781 171.160156 48.839844 169.097656 C 47.882812 167.035156 47.332031 164.867188 47.191406 162.59375 C 47.242188 160.992188 47.53125 159.433594 48.050781 157.917969 C 48.574219 156.402344 49.304688 154.996094 50.25 153.703125 C 50.511719 153.316406 50.738281 152.910156 50.921875 152.480469 C 51.105469 152.050781 51.246094 151.605469 51.34375 151.148438 C 51.441406 150.691406 51.492188 150.230469 51.5 149.765625 C 51.503906 149.296875 51.464844 148.832031 51.378906 148.375 C 51.296875 147.914062 51.167969 147.46875 50.992188 147.035156 C 50.820312 146.601562 50.605469 146.1875 50.351562 145.792969 C 50.097656 145.402344 49.808594 145.039062 49.480469 144.707031 C 49.15625 144.371094 48.800781 144.070312 48.414062 143.804688 C 47.207031 142.984375 45.871094 142.578125 44.410156 142.582031 C 43.292969 142.640625 42.246094 142.941406 41.265625 143.488281 C 40.289062 144.035156 39.484375 144.773438 38.851562 145.695312 C 37.105469 148.132812 35.761719 150.773438 34.8125 153.613281 C 33.863281 156.457031 33.359375 159.378906 33.292969 162.375 C 33.355469 164.558594 33.632812 166.71875 34.128906 168.847656 C 34.625 170.980469 35.324219 173.039062 36.230469 175.03125 C 37.140625 177.023438 38.234375 178.902344 39.515625 180.675781 C 40.800781 182.445312 42.246094 184.070312 43.855469 185.554688 L 122.347656 287.730469 L 122.347656 358.382812 C 122.390625 359.175781 122.554688 359.945312 122.839844 360.6875 C 123.121094 361.429688 123.515625 362.109375 124.011719 362.730469 C 124.511719 363.347656 125.09375 363.875 125.757812 364.308594 C 126.425781 364.746094 127.140625 365.066406 127.90625 365.277344 C 147.128906 371.148438 166.789062 374.074219 186.886719 374.058594 C 207.175781 374.050781 227.019531 371.085938 246.425781 365.164062 C 247.148438 364.9375 247.816406 364.601562 248.429688 364.160156 C 249.046875 363.722656 249.578125 363.195312 250.027344 362.585938 C 250.476562 361.976562 250.820312 361.316406 251.0625 360.597656 C 251.300781 359.878906 251.421875 359.140625 251.429688 358.382812 L 251.429688 287.730469 L 330.476562 185.832031 C 332.101562 184.351562 333.558594 182.726562 334.855469 180.949219 C 336.148438 179.175781 337.253906 177.292969 338.171875 175.296875 C 339.089844 173.300781 339.796875 171.234375 340.300781 169.097656 C 340.800781 166.957031 341.085938 164.789062 341.152344 162.59375 C 341.109375 159.5625 340.613281 156.601562 339.664062 153.71875 C 338.714844 150.839844 337.359375 148.164062 335.59375 145.695312 Z M 239.699219 279.390625 C 235.503906 281.050781 231.242188 282.507812 226.910156 283.765625 C 222.578125 285.019531 218.199219 286.070312 213.769531 286.917969 C 209.339844 287.761719 204.878906 288.394531 200.386719 288.820312 C 195.898438 289.242188 191.398438 289.453125 186.886719 289.453125 C 182.378906 289.453125 177.878906 289.242188 173.386719 288.820312 C 168.898438 288.394531 164.4375 287.761719 160.007812 286.917969 C 155.578125 286.070312 151.195312 285.019531 146.867188 283.765625 C 142.535156 282.507812 138.273438 281.050781 134.078125 279.390625 L 76.488281 205.734375 C 79.65625 206.957031 82.992188 208.125 86.4375 209.234375 L 90.21875 210.402344 L 95 211.792969 C 115.972656 217.4375 137.300781 220.882812 158.980469 222.132812 L 168.15625 222.6875 L 172.101562 222.6875 C 176.992188 222.6875 181.886719 222.6875 186.777344 222.6875 C 191.667969 222.6875 196.503906 222.6875 201.398438 222.6875 L 205.34375 222.6875 L 214.515625 222.132812 C 236.191406 220.933594 257.519531 217.542969 278.5 211.960938 L 283.394531 210.570312 L 287.0625 209.402344 C 290.507812 208.289062 293.84375 207.125 297.011719 205.898438 Z M 136.523438 353.046875 L 136.523438 295.34375 C 144.613281 298.085938 152.871094 300.152344 161.296875 301.542969 C 169.726562 302.933594 178.207031 303.625 186.75 303.625 C 195.289062 303.625 203.773438 302.933594 212.203125 301.542969 C 220.628906 300.152344 228.886719 298.085938 236.976562 295.34375 L 236.976562 353.046875 C 220.609375 357.589844 203.929688 359.871094 186.945312 359.882812 C 169.828125 359.882812 153.023438 357.601562 136.523438 353.046875 Z M 136.523438 353.046875 "/></g></g></svg>