<svg xmlns="http://www.w3.org/2000/svg" xmlns:xlink="http://www.w3.org/1999/xlink" width="500" zoomAndPan="magnify" viewBox="0 0 375 374.999991" height="500" preserveAspectRatio="xMidYMid meet" version="1.2"><g id="e4202c07d4"><path style=" stroke:none;fill-rule:evenodd;fill:#233c4f;fill-opacity:1;" d="M 210.585938 244.46875 L 229.210938 263.089844 C 224.320312 271.988281 225.644531 283.402344 233.183594 290.9375 L 308.085938 365.839844 C 317.230469 374.984375 332.078125 374.984375 341.21875 365.839844 L 365.839844 341.21875 C 374.984375 332.078125 374.984375 317.230469 365.839844 308.085938 L 290.9375 233.183594 C 283.402344 225.644531 271.988281 224.320312 263.089844 229.210938 L 244.46875 210.585938 C 259.53125 188.894531 268.367188 162.554688 268.367188 134.167969 C 268.367188 119.53125 266.015625 105.4375 261.675781 92.242188 L 307.878906 45.046875 C 309.558594 43.328125 310.058594 40.777344 309.148438 38.554688 L 296.433594 7.488281 C 295.691406 5.675781 294.113281 4.335938 292.207031 3.898438 C 290.296875 3.460938 288.292969 3.980469 286.835938 5.289062 L 237.996094 49.175781 C 213.378906 19.144531 175.992188 -0.03125 134.167969 -0.03125 C 60.101562 -0.03125 -0.03125 60.101562 -0.03125 134.167969 C -0.03125 208.234375 60.101562 268.367188 134.167969 268.367188 C 162.554688 268.367188 188.894531 259.53125 210.585938 244.46875 Z M 282.425781 241.695312 L 357.324219 316.597656 C 361.769531 321.042969 361.769531 328.261719 357.324219 332.707031 L 332.707031 357.324219 C 328.261719 361.769531 321.042969 361.769531 316.597656 357.324219 L 241.695312 282.425781 C 237.253906 277.980469 237.253906 270.761719 241.695312 266.316406 L 266.316406 241.695312 C 270.761719 237.253906 277.980469 237.253906 282.425781 241.695312 Z M 219.738281 135.085938 C 219.246094 181.894531 181.089844 219.742188 134.167969 219.742188 C 86.9375 219.742188 48.589844 181.398438 48.589844 134.167969 C 48.589844 86.9375 86.9375 48.589844 134.167969 48.589844 C 161.644531 48.589844 186.113281 61.570312 201.777344 81.726562 L 155.242188 123.539062 L 110.332031 79.90625 C 108.0625 77.699219 104.46875 77.628906 102.113281 79.746094 L 72.285156 106.523438 C 71.015625 107.667969 70.289062 109.296875 70.289062 111.003906 L 70.289062 112.058594 C 70.289062 113.632812 70.902344 115.144531 72.003906 116.269531 L 150.78125 196.738281 C 151.914062 197.898438 153.460938 198.550781 155.082031 198.550781 C 156.699219 198.550781 158.25 197.898438 159.382812 196.738281 Z M 229.03125 57.234375 L 210.75 73.660156 C 192.867188 51.058594 165.199219 36.550781 134.167969 36.550781 C 80.289062 36.550781 36.550781 80.289062 36.550781 134.167969 C 36.550781 188.042969 80.289062 231.785156 134.167969 231.785156 C 188.042969 231.785156 231.785156 188.042969 231.785156 134.167969 C 231.785156 130.523438 231.582031 126.925781 231.195312 123.382812 L 252.058594 102.070312 C 254.839844 112.300781 256.324219 123.0625 256.324219 134.167969 C 256.324219 161.714844 247.183594 187.148438 231.773438 207.59375 L 231.769531 207.601562 C 224.878906 216.738281 216.738281 224.878906 207.601562 231.769531 L 207.59375 231.773438 C 187.148438 247.183594 161.714844 256.324219 134.167969 256.324219 C 66.746094 256.324219 12.007812 201.585938 12.007812 134.167969 C 12.007812 66.746094 66.746094 12.007812 134.167969 12.007812 C 172.441406 12.007812 206.625 29.648438 229.03125 57.234375 Z M 253.917969 237.066406 L 237.066406 253.917969 L 220.242188 237.097656 C 226.34375 231.988281 231.988281 226.34375 237.097656 220.242188 Z M 250.535156 86.414062 C 250.492188 86.453125 250.453125 86.496094 250.414062 86.535156 L 155.082031 183.921875 C 155.082031 183.921875 99.710938 127.359375 84.457031 111.777344 L 105.972656 92.460938 C 105.972656 92.460938 150.886719 136.097656 150.886719 136.097656 C 153.15625 138.304688 156.75 138.371094 159.105469 136.257812 L 213.804688 87.101562 C 213.847656 87.066406 213.890625 87.027344 213.933594 86.988281 L 241.199219 62.488281 C 241.230469 62.457031 241.265625 62.429688 241.296875 62.398438 L 288.527344 19.957031 C 288.527344 19.957031 296.503906 39.453125 296.503906 39.453125 Z M 250.535156 86.414062 "/></g></svg>