<svg xmlns="http://www.w3.org/2000/svg" xmlns:xlink="http://www.w3.org/1999/xlink" width="500" zoomAndPan="magnify" viewBox="0 0 375 374.999991" height="500" preserveAspectRatio="xMidYMid meet" version="1.2"><defs><clipPath id="4b18e1d0c3"><path d="M 42.890625 0 L 332.390625 0 L 332.390625 375 L 42.890625 375 Z M 42.890625 0 "/></clipPath></defs><g id="5e3e1c58f1"><g clip-rule="nonzero" clip-path="url(#4b18e1d0c3)"><path style=" stroke:none;fill-rule:evenodd;fill:#233c4f;fill-opacity:1;" d="M 219.984375 207.792969 C 212.90625 211.070312 207.605469 217.433594 205.726562 225.492188 C 205.722656 225.515625 203.351562 235.605469 203.351562 235.605469 C 203.347656 235.613281 203.347656 235.621094 203.34375 235.628906 C 203.277344 235.929688 203.140625 236.164062 202.917969 236.375 C 202.910156 236.382812 202.902344 236.390625 202.894531 236.394531 L 195.308594 243.511719 C 186.746094 251.550781 184.585938 263.828125 189.902344 274.292969 C 189.914062 274.3125 194.570312 283.519531 194.570312 283.519531 C 194.714844 283.8125 194.777344 284.097656 194.738281 284.421875 C 194.734375 284.433594 194.734375 284.449219 194.730469 284.460938 L 193.496094 294.789062 L 193.496094 294.804688 C 193.003906 298.953125 193.480469 302.996094 194.785156 306.6875 C 144.179688 306.6875 91.699219 306.683594 76.542969 306.679688 C 75.4375 306.679688 74.386719 306.203125 73.664062 305.367188 C 72.9375 304.535156 72.609375 303.429688 72.761719 302.335938 C 80.933594 246.261719 129.199219 203.191406 187.523438 203.191406 C 198.792969 203.191406 209.683594 204.796875 219.984375 207.792969 Z M 187.523438 195.539062 C 155.230469 195.539062 128.90625 169.183594 128.90625 136.890625 C 128.90625 104.597656 155.230469 78.242188 187.523438 78.242188 C 219.847656 78.242188 246.167969 104.597656 246.167969 136.890625 C 246.167969 169.183594 219.847656 195.539062 187.523438 195.539062 Z M 308.453125 329.335938 L 322.511719 359.539062 C 322.71875 359.976562 322.667969 360.445312 322.371094 360.808594 C 322.09375 361.191406 321.65625 361.367188 321.1875 361.277344 L 302.546875 358.027344 L 293.019531 374.390625 C 292.792969 374.789062 292.375 375.015625 291.90625 375 C 291.433594 374.980469 291.054688 374.71875 290.84375 374.285156 L 277.941406 346.570312 C 288.324219 348.585938 298.691406 344.273438 304.609375 335.214844 Z M 251.738281 346.570312 L 238.832031 374.285156 C 238.640625 374.71875 238.242188 374.980469 237.773438 375 C 237.304688 375.015625 236.886719 374.789062 236.660156 374.390625 L 227.148438 358.027344 L 208.488281 361.277344 C 208.019531 361.367188 207.585938 361.191406 207.308594 360.808594 C 207.011719 360.445312 206.960938 359.976562 207.167969 359.539062 L 221.226562 329.335938 C 222.886719 331.875 225.074219 335.21875 225.074219 335.21875 C 230.988281 344.273438 241.351562 348.585938 251.738281 346.570312 Z M 273.125 208.078125 L 281.453125 214.324219 C 283.734375 216.027344 286.113281 216.894531 288.964844 217.050781 L 299.347656 217.625 C 305.554688 217.972656 310.617188 222.214844 312.023438 228.269531 L 314.40625 238.40625 C 315.050781 241.171875 316.320312 243.378906 318.40625 245.328125 L 325.988281 252.4375 C 330.527344 256.699219 331.671875 263.203125 328.855469 268.75 L 324.164062 278.035156 C 322.894531 280.574219 322.441406 283.078125 322.789062 285.914062 L 324.023438 296.242188 C 324.753906 302.414062 321.46875 308.136719 315.730469 310.589844 L 306.179688 314.675781 C 303.554688 315.789062 301.609375 317.4375 300.042969 319.820312 L 294.355469 328.515625 C 290.949219 333.734375 284.757812 335.976562 278.792969 334.183594 L 268.828125 331.175781 C 266.117188 330.34375 263.5625 330.34375 260.847656 331.175781 L 250.882812 334.183594 C 244.921875 335.976562 238.730469 333.734375 235.320312 328.515625 L 229.636719 319.820312 C 228.070312 317.4375 226.121094 315.789062 223.496094 314.675781 L 213.949219 310.589844 C 208.230469 308.136719 204.925781 302.414062 205.65625 296.242188 L 206.890625 285.914062 C 207.238281 283.078125 206.785156 280.574219 205.515625 278.035156 L 200.820312 268.75 C 198.003906 263.203125 199.152344 256.699219 203.691406 252.4375 L 211.273438 245.328125 C 213.359375 243.378906 214.628906 241.171875 215.269531 238.40625 L 217.652344 228.269531 C 219.0625 222.214844 224.121094 217.972656 230.332031 217.625 L 240.710938 217.050781 C 243.5625 216.894531 245.964844 216.027344 248.222656 214.324219 L 256.554688 208.078125 C 261.542969 204.359375 268.132812 204.359375 273.125 208.078125 Z M 264.847656 308.042969 C 285.761719 308.042969 302.835938 290.96875 302.835938 270.035156 C 302.835938 249.105469 285.761719 232.03125 264.847656 232.03125 C 243.917969 232.03125 226.84375 249.105469 226.84375 270.035156 C 226.84375 290.96875 243.917969 308.042969 264.847656 308.042969 Z M 184.707031 2.046875 C 185.101562 0.824219 186.242188 0 187.523438 0 C 188.804688 0 189.941406 0.824219 190.339844 2.046875 L 195.726562 18.628906 C 196.125 19.847656 197.261719 20.675781 198.542969 20.675781 L 215.980469 20.675781 C 217.261719 20.675781 218.398438 21.5 218.796875 22.722656 C 219.191406 23.941406 218.757812 25.277344 217.71875 26.03125 L 203.613281 36.28125 C 202.574219 37.035156 202.140625 38.371094 202.539062 39.589844 L 207.925781 56.175781 C 208.324219 57.394531 207.886719 58.730469 206.851562 59.484375 C 205.8125 60.238281 204.40625 60.238281 203.371094 59.484375 L 189.261719 49.234375 C 188.226562 48.480469 186.820312 48.480469 185.78125 49.234375 L 171.675781 59.484375 C 170.636719 60.238281 169.234375 60.238281 168.195312 59.484375 C 167.15625 58.730469 166.722656 57.394531 167.117188 56.175781 L 172.507812 39.589844 C 172.902344 38.371094 172.46875 37.035156 171.429688 36.28125 L 157.324219 26.03125 C 156.289062 25.277344 155.855469 23.941406 156.25 22.722656 C 156.644531 21.5 157.78125 20.675781 159.066406 20.675781 L 176.503906 20.675781 C 177.785156 20.675781 178.921875 19.847656 179.320312 18.628906 Z M 84.773438 45.785156 C 84.191406 44.640625 84.414062 43.253906 85.320312 42.347656 C 86.226562 41.441406 87.613281 41.21875 88.757812 41.800781 L 104.292969 49.71875 C 105.4375 50.300781 106.824219 50.082031 107.730469 49.175781 L 120.0625 36.84375 C 120.96875 35.9375 122.355469 35.71875 123.5 36.300781 C 124.640625 36.882812 125.28125 38.132812 125.078125 39.402344 L 122.351562 56.621094 C 122.152344 57.890625 122.789062 59.140625 123.933594 59.722656 L 139.46875 67.640625 C 140.609375 68.222656 141.25 69.476562 141.046875 70.742188 C 140.847656 72.007812 139.855469 73.003906 138.585938 73.203125 L 121.367188 75.929688 C 120.097656 76.132812 119.105469 77.125 118.902344 78.394531 L 116.175781 95.613281 C 115.976562 96.882812 114.980469 97.875 113.714844 98.074219 C 112.449219 98.277344 111.195312 97.636719 110.613281 96.496094 L 102.695312 80.960938 C 102.113281 79.816406 100.863281 79.179688 99.597656 79.378906 L 82.375 82.105469 C 81.105469 82.308594 79.855469 81.667969 79.273438 80.527344 C 78.691406 79.382812 78.910156 77.996094 79.816406 77.089844 L 92.148438 64.757812 C 93.054688 63.851562 93.273438 62.464844 92.691406 61.320312 Z M 45.039062 147.375 C 43.820312 146.980469 42.996094 145.84375 42.996094 144.558594 C 42.996094 143.277344 43.820312 142.140625 45.039062 141.742188 L 61.625 136.355469 C 62.84375 135.957031 63.667969 134.820312 63.667969 133.539062 L 63.667969 116.101562 C 63.667969 114.820312 64.496094 113.683594 65.714844 113.285156 C 66.9375 112.890625 68.273438 113.324219 69.027344 114.363281 L 79.273438 128.46875 C 80.03125 129.503906 81.367188 129.941406 82.585938 129.542969 L 99.167969 124.15625 C 100.390625 123.757812 101.726562 124.191406 102.480469 125.230469 C 103.234375 126.269531 103.234375 127.675781 102.480469 128.710938 L 92.230469 142.816406 C 91.476562 143.855469 91.476562 145.261719 92.230469 146.300781 L 102.480469 160.40625 C 103.234375 161.445312 103.234375 162.847656 102.480469 163.886719 C 101.726562 164.925781 100.390625 165.359375 99.167969 164.960938 L 82.585938 159.574219 C 81.367188 159.175781 80.03125 159.613281 79.273438 160.648438 L 69.027344 174.757812 C 68.273438 175.792969 66.9375 176.230469 65.714844 175.832031 C 64.496094 175.4375 63.667969 174.296875 63.667969 173.015625 L 63.667969 155.578125 C 63.667969 154.296875 62.84375 153.160156 61.625 152.761719 Z M 286.296875 41.78125 C 287.441406 41.199219 288.828125 41.417969 289.734375 42.324219 C 290.640625 43.230469 290.863281 44.621094 290.28125 45.761719 L 282.363281 61.296875 C 281.78125 62.441406 282 63.828125 282.910156 64.738281 L 295.238281 77.066406 C 296.144531 77.972656 296.363281 79.363281 295.78125 80.503906 C 295.199219 81.648438 293.949219 82.285156 292.679688 82.085938 L 275.457031 79.355469 C 274.191406 79.15625 272.941406 79.792969 272.355469 80.9375 L 264.441406 96.472656 C 263.859375 97.617188 262.605469 98.253906 261.339844 98.054688 C 260.074219 97.851562 259.078125 96.859375 258.878906 95.59375 L 256.152344 78.371094 C 255.949219 77.101562 254.957031 76.109375 253.691406 75.910156 L 236.46875 73.179688 C 235.199219 72.980469 234.207031 71.988281 234.007812 70.71875 C 233.804688 69.453125 234.445312 68.199219 235.585938 67.617188 L 251.121094 59.703125 C 252.265625 59.121094 252.902344 57.867188 252.703125 56.601562 L 249.976562 39.378906 C 249.773438 38.113281 250.414062 36.859375 251.554688 36.277344 C 252.699219 35.695312 254.085938 35.914062 254.992188 36.824219 L 267.324219 49.152344 C 268.230469 50.058594 269.617188 50.277344 270.761719 49.695312 Z M 330.035156 141.710938 C 331.253906 142.109375 332.082031 143.246094 332.082031 144.527344 C 332.082031 145.8125 331.253906 146.949219 330.035156 147.34375 L 313.453125 152.730469 C 312.234375 153.128906 311.40625 154.265625 311.40625 155.546875 L 311.40625 172.984375 C 311.40625 174.269531 310.582031 175.40625 309.359375 175.800781 C 308.140625 176.195312 306.804688 175.761719 306.050781 174.726562 L 295.800781 160.617188 C 295.046875 159.582031 293.710938 159.148438 292.492188 159.542969 L 275.90625 164.929688 C 274.6875 165.328125 273.351562 164.894531 272.597656 163.855469 C 271.84375 162.816406 271.84375 161.414062 272.597656 160.375 L 282.847656 146.269531 C 283.601562 145.230469 283.601562 143.824219 282.847656 142.789062 L 272.597656 128.679688 C 271.84375 127.644531 271.84375 126.238281 272.597656 125.199219 C 273.351562 124.164062 274.6875 123.730469 275.90625 124.125 L 292.492188 129.511719 C 293.710938 129.910156 295.046875 129.476562 295.800781 128.4375 L 306.050781 114.332031 C 306.804688 113.292969 308.140625 112.859375 309.359375 113.253906 C 310.582031 113.652344 311.40625 114.789062 311.40625 116.070312 L 311.40625 133.507812 C 311.40625 134.789062 312.234375 135.925781 313.453125 136.324219 Z M 330.035156 141.710938 "/></g></g></svg>