<svg xmlns="http://www.w3.org/2000/svg" xmlns:xlink="http://www.w3.org/1999/xlink" width="500" zoomAndPan="magnify" viewBox="0 0 375 374.999991" height="500" preserveAspectRatio="xMidYMid meet" version="1.2"><g id="726a7df0e0"><path style=" stroke:none;fill-rule:nonzero;fill:#233c4f;fill-opacity:1;" d="M 346.914062 187.957031 C 349.847656 187.957031 352.226562 185.578125 352.226562 182.640625 L 352.226562 165.199219 L 360.058594 165.199219 C 368.296875 165.199219 375 158.496094 375 150.257812 L 375 131.503906 C 375 123.265625 368.296875 116.5625 360.058594 116.5625 L 334.484375 116.5625 L 192.8125 55.167969 L 192.8125 44.175781 L 240.628906 44.175781 C 243.566406 44.175781 245.945312 41.796875 245.945312 38.863281 L 245.945312 5.3125 C 245.945312 2.378906 243.566406 0 240.628906 0 L 187.5 0 C 186.089844 0 184.738281 0.558594 183.742188 1.554688 C 182.746094 2.554688 182.183594 3.902344 182.183594 5.3125 L 182.1875 55.167969 L 40.515625 116.5625 L 14.941406 116.5625 C 6.703125 116.5625 0 123.265625 0 131.503906 L 0 150.257812 C 0 158.496094 6.703125 165.199219 14.941406 165.199219 L 22.773438 165.199219 L 22.773438 182.640625 C 22.773438 185.578125 25.152344 187.957031 28.085938 187.957031 L 35.191406 187.957031 L 35.191406 303.347656 L 28.085938 303.347656 C 25.152344 303.347656 22.773438 305.726562 22.773438 308.660156 L 22.773438 326.105469 L 16.421875 326.105469 C 7.367188 326.105469 0 333.472656 0 342.527344 L 0 358.578125 C 0 367.632812 7.367188 375 16.421875 375 L 358.578125 375 C 367.632812 375 375 367.632812 375 358.578125 L 375 342.527344 C 375 333.472656 367.632812 326.105469 358.578125 326.105469 L 352.226562 326.105469 L 352.226562 308.660156 C 352.226562 305.726562 349.847656 303.347656 346.914062 303.347656 L 339.808594 303.347656 L 339.808594 187.957031 Z M 341.597656 177.328125 L 298.683594 177.328125 L 298.683594 165.199219 L 341.597656 165.199219 Z M 293.367188 303.347656 C 290.433594 303.347656 288.054688 305.726562 288.054688 308.660156 L 288.054688 326.105469 L 263.800781 326.105469 L 263.800781 308.660156 C 263.800781 305.726562 261.421875 303.347656 258.484375 303.347656 L 251.382812 303.347656 L 251.382812 187.957031 L 258.484375 187.957031 C 261.421875 187.957031 263.800781 185.578125 263.800781 182.640625 L 263.800781 165.199219 L 288.054688 165.199219 L 288.054688 182.640625 C 288.054688 185.578125 290.433594 187.957031 293.367188 187.957031 L 300.472656 187.957031 L 300.472656 303.347656 Z M 81.632812 303.347656 L 74.527344 303.347656 L 74.527344 187.957031 L 81.632812 187.957031 C 84.566406 187.957031 86.945312 185.578125 86.945312 182.640625 L 86.945312 165.199219 L 111.199219 165.199219 L 111.199219 182.640625 C 111.199219 185.578125 113.578125 187.957031 116.515625 187.957031 L 123.617188 187.957031 L 123.617188 303.347656 L 116.515625 303.347656 C 113.578125 303.347656 111.199219 305.726562 111.199219 308.660156 L 111.199219 326.105469 L 86.945312 326.105469 L 86.945312 308.660156 C 86.945312 305.726562 84.566406 303.347656 81.632812 303.347656 Z M 134.246094 303.347656 L 134.246094 187.957031 L 152.328125 187.957031 L 152.328125 303.347656 Z M 121.828125 177.328125 L 121.828125 165.199219 L 164.746094 165.199219 L 164.746094 177.328125 Z M 121.828125 313.972656 L 164.746094 313.972656 L 164.746094 326.105469 L 121.828125 326.105469 Z M 170.058594 303.347656 L 162.953125 303.347656 L 162.953125 187.957031 L 170.058594 187.957031 C 172.992188 187.957031 175.371094 185.578125 175.371094 182.640625 L 175.371094 165.199219 L 199.625 165.199219 L 199.625 182.640625 C 199.625 185.578125 202.003906 187.957031 204.941406 187.957031 L 212.042969 187.957031 L 212.042969 303.347656 L 204.941406 303.347656 C 202.003906 303.347656 199.625 305.726562 199.625 308.660156 L 199.625 326.105469 L 175.371094 326.105469 L 175.371094 308.660156 C 175.371094 305.726562 172.996094 303.347656 170.058594 303.347656 Z M 222.671875 303.347656 L 222.671875 187.957031 L 240.753906 187.957031 L 240.753906 303.347656 Z M 210.253906 177.328125 L 210.253906 165.199219 L 253.171875 165.199219 L 253.171875 177.328125 Z M 210.253906 313.972656 L 253.171875 313.972656 L 253.171875 326.105469 L 210.253906 326.105469 Z M 192.8125 10.628906 L 235.316406 10.628906 L 235.316406 33.550781 L 192.8125 33.550781 Z M 187.5 64.449219 L 307.753906 116.5625 L 67.246094 116.5625 Z M 10.628906 150.257812 L 10.628906 131.503906 C 10.628906 129.125 12.5625 127.1875 14.941406 127.1875 L 360.058594 127.1875 C 362.4375 127.1875 364.375 129.125 364.375 131.503906 L 364.375 150.257812 C 364.375 152.636719 362.4375 154.570312 360.058594 154.570312 L 14.941406 154.570312 C 12.5625 154.570312 10.628906 152.636719 10.628906 150.257812 Z M 33.402344 165.199219 L 76.316406 165.199219 L 76.316406 177.328125 L 33.402344 177.328125 Z M 45.816406 187.957031 L 63.898438 187.957031 L 63.898438 303.347656 L 45.816406 303.347656 Z M 33.402344 313.972656 L 76.316406 313.972656 L 76.316406 326.105469 L 33.402344 326.105469 Z M 364.371094 342.527344 L 364.371094 358.578125 C 364.371094 361.773438 361.773438 364.371094 358.578125 364.371094 L 16.421875 364.371094 C 13.226562 364.371094 10.628906 361.773438 10.628906 358.578125 L 10.628906 342.527344 C 10.628906 339.332031 13.226562 336.734375 16.421875 336.734375 L 358.578125 336.734375 C 361.773438 336.734375 364.371094 339.332031 364.371094 342.527344 Z M 341.597656 326.105469 L 298.683594 326.105469 L 298.683594 313.972656 L 341.597656 313.972656 Z M 329.183594 303.347656 L 311.101562 303.347656 L 311.101562 187.957031 L 329.183594 187.957031 Z M 329.183594 303.347656 "/></g></svg>