<svg xmlns="http://www.w3.org/2000/svg" xmlns:xlink="http://www.w3.org/1999/xlink" width="500" zoomAndPan="magnify" viewBox="0 0 375 374.999991" height="500" preserveAspectRatio="xMidYMid meet" version="1.2"><defs><clipPath id="dec9c2f9bc"><path d="M 13.402344 0 L 316 0 L 316 194 L 13.402344 194 Z M 13.402344 0 "/></clipPath></defs><g id="6b31be77ec"><path style=" stroke:none;fill-rule:evenodd;fill:#233c4f;fill-opacity:1;" d="M 60.207031 211.398438 L 95.980469 211.398438 C 106.648438 211.398438 115.355469 220.109375 115.355469 230.773438 L 115.355469 348.550781 C 115.355469 351.453125 113.03125 353.773438 110.128906 353.773438 L 46.054688 353.773438 C 43.152344 353.773438 40.832031 351.453125 40.832031 348.550781 L 40.832031 230.773438 C 40.832031 220.179688 49.609375 211.398438 60.207031 211.398438 Z M 95.980469 221.777344 L 60.207031 221.777344 C 57.738281 221.777344 55.488281 222.792969 53.820312 224.390625 C 52.222656 225.984375 51.207031 228.234375 51.207031 230.703125 L 51.207031 343.25 L 104.90625 343.25 L 104.90625 230.773438 C 104.976562 225.839844 100.914062 221.777344 95.980469 221.777344 Z M 95.980469 221.777344 "/><path style=" stroke:none;fill-rule:evenodd;fill:#233c4f;fill-opacity:1;" d="M 202.070312 327.796875 C 202.070312 320.972656 212.449219 321.046875 212.449219 327.796875 L 212.449219 348.550781 C 212.449219 351.453125 210.125 353.773438 207.222656 353.773438 L 143.148438 353.773438 C 140.246094 353.773438 137.921875 351.453125 137.921875 348.550781 L 137.921875 201.242188 C 137.921875 190.574219 146.628906 181.867188 157.296875 181.867188 L 193.074219 181.867188 C 198.371094 181.867188 203.230469 184.042969 206.789062 187.527344 C 210.269531 191.007812 212.449219 195.871094 212.449219 201.242188 L 212.449219 279.105469 C 212.375 285.851562 202.070312 285.925781 202.070312 279.105469 L 202.070312 201.167969 C 202.070312 196.234375 198.007812 192.171875 193.074219 192.171875 L 157.296875 192.171875 C 152.363281 192.171875 148.300781 196.234375 148.300781 201.167969 L 148.300781 343.324219 L 202 343.324219 L 202 327.796875 Z M 202.070312 327.796875 "/><path style=" stroke:none;fill-rule:evenodd;fill:#233c4f;fill-opacity:1;" d="M 245.539062 245.289062 C 245.539062 252.035156 235.160156 252.109375 235.160156 245.289062 C 235.160156 245.289062 235.160156 143.480469 235.160156 143.480469 C 235.160156 132.8125 243.867188 124.105469 254.535156 124.105469 L 290.308594 124.105469 C 300.90625 124.105469 309.683594 132.8125 309.683594 143.480469 L 309.683594 252.835938 C 309.613281 259.582031 299.308594 259.65625 299.308594 252.835938 C 299.308594 252.835938 299.308594 143.480469 299.308594 143.480469 C 299.308594 141.011719 298.292969 138.761719 296.695312 137.164062 C 295.097656 135.570312 292.851562 134.554688 290.382812 134.554688 L 254.609375 134.554688 C 252.140625 134.554688 249.890625 135.570312 248.292969 137.164062 C 246.699219 138.761719 245.683594 141.011719 245.683594 143.480469 L 245.683594 245.289062 Z M 245.539062 245.289062 "/><g clip-rule="nonzero" clip-path="url(#dec9c2f9bc)"><path style=" stroke:none;fill-rule:evenodd;fill:#233c4f;fill-opacity:1;" d="M 15.433594 149.355469 L 101.351562 63.4375 C 107.226562 57.5625 114.992188 54.585938 122.683594 54.585938 C 130.375 54.585938 138.140625 57.5625 144.019531 63.4375 L 176.746094 96.167969 L 236.976562 35.9375 L 224.492188 23.457031 C 221.371094 20.554688 223.40625 14.964844 227.613281 14.601562 L 309.394531 0.671875 C 312.878906 0.015625 316.070312 3.28125 315.34375 6.765625 L 301.414062 88.691406 C 300.832031 92.753906 295.390625 94.496094 292.632812 91.523438 L 279.714844 78.679688 L 198.152344 160.167969 C 192.273438 166.046875 184.511719 169.023438 176.816406 169.023438 C 169.125 169.023438 161.363281 166.046875 155.484375 160.167969 L 122.757812 127.441406 L 58.171875 192.023438 C 56.140625 194.058594 52.875 194.058594 50.84375 192.023438 L 15.503906 156.6875 C 13.402344 154.726562 13.402344 151.386719 15.433594 149.355469 Z M 108.75 70.769531 L 26.460938 153.058594 L 54.472656 181.066406 L 119.054688 116.484375 C 121.085938 114.453125 124.351562 114.453125 126.386719 116.484375 L 162.8125 152.914062 C 170.503906 160.675781 183.132812 160.675781 190.824219 152.914062 L 276.085938 67.574219 C 278.121094 65.542969 281.382812 65.542969 283.417969 67.574219 L 292.851562 77.007812 L 303.878906 12.0625 L 238.933594 23.09375 L 248.003906 32.164062 C 250.035156 34.195312 250.035156 37.460938 248.003906 39.492188 L 180.445312 107.050781 C 178.414062 109.082031 175.148438 109.082031 173.117188 107.050781 L 136.761719 70.769531 C 128.996094 63.003906 116.445312 63.003906 108.75 70.769531 Z M 108.75 70.769531 "/></g><path style=" stroke:none;fill-rule:evenodd;fill:#233c4f;fill-opacity:1;" d="M 324.34375 302.542969 C 324.632812 295.140625 335.445312 296.011719 334.71875 303.414062 C 331.382812 394.484375 200.621094 394.484375 197.28125 303.414062 C 197.136719 235.78125 286.175781 209.296875 323.253906 265.390625 C 326.957031 271.050781 318.394531 276.710938 314.621094 271.121094 C 296.042969 240.863281 248.65625 236.507812 224.785156 262.195312 C 188.210938 297.464844 214.550781 362.480469 266 361.757812 C 298.511719 361.757812 324.777344 335.050781 324.34375 302.542969 Z M 324.34375 302.542969 "/><path style=" stroke:none;fill-rule:evenodd;fill:#233c4f;fill-opacity:1;" d="M 228.484375 303.121094 C 209.90625 282.804688 238.714844 254.648438 258.597656 273.660156 C 258.597656 273.660156 282.328125 297.390625 282.328125 297.390625 L 324.632812 255.085938 C 337.113281 241.660156 361.277344 251.964844 360.625 269.960938 C 360.625 275.332031 358.59375 280.773438 354.457031 284.835938 L 297.277344 342.019531 C 289.078125 350.21875 275.722656 350.289062 267.453125 342.019531 L 228.773438 303.339844 Z M 233.054688 288.609375 C 233.054688 291.222656 234 293.90625 235.957031 295.9375 L 274.855469 334.835938 C 276.957031 336.9375 279.644531 337.953125 282.402344 337.953125 C 285.011719 337.953125 287.699219 337.011719 289.730469 335.050781 L 347.128906 277.652344 C 351.265625 273.515625 351.265625 266.695312 347.128906 262.558594 C 342.992188 258.421875 336.171875 258.421875 332.035156 262.558594 L 286.101562 308.492188 C 284.070312 310.523438 280.804688 310.523438 278.773438 308.492188 L 251.34375 281.0625 C 244.957031 274.167969 232.691406 279.464844 233.054688 288.609375 Z M 233.054688 288.609375 "/><path style=" stroke:none;fill-rule:evenodd;fill:#ffffff;fill-opacity:1;" d="M 126.386719 116.484375 L 162.8125 152.914062 C 170.503906 160.675781 183.132812 160.675781 190.824219 152.914062 L 276.085938 67.574219 C 278.121094 65.542969 281.382812 65.542969 283.417969 67.574219 L 292.851562 77.007812 L 303.878906 12.0625 L 238.933594 23.09375 L 248.003906 32.164062 C 250.035156 34.195312 250.035156 37.460938 248.003906 39.492188 L 180.445312 107.050781 C 178.414062 109.082031 175.148438 109.082031 173.117188 107.050781 L 136.761719 70.769531 C 132.914062 66.921875 127.835938 64.964844 122.757812 64.964844 C 117.675781 64.964844 112.597656 66.921875 108.75 70.769531 L 26.460938 153.058594 L 54.472656 181.066406 L 119.054688 116.484375 C 121.085938 114.453125 124.351562 114.453125 126.386719 116.484375 Z M 126.386719 116.484375 "/><path style=" stroke:none;fill-rule:evenodd;fill:#ffffff;fill-opacity:1;" d="M 267.453125 342.089844 L 228.773438 303.414062 L 228.484375 303.050781 C 209.90625 282.730469 238.714844 254.578125 258.597656 273.589844 C 258.597656 273.589844 282.328125 297.316406 282.328125 297.316406 L 312.078125 267.566406 C 278.699219 224.027344 207.367188 248.117188 207.65625 303.339844 C 208.964844 372.566406 306.203125 383.234375 322.820312 316.476562 L 297.277344 342.019531 C 289.078125 350.289062 275.722656 350.363281 267.453125 342.089844 Z M 267.453125 342.089844 "/></g></svg>