<svg xmlns="http://www.w3.org/2000/svg" xmlns:xlink="http://www.w3.org/1999/xlink" width="500" zoomAndPan="magnify" viewBox="0 0 375 374.999991" height="500" preserveAspectRatio="xMidYMid meet" version="1.2"><g id="ae32cf2915"><path style=" stroke:none;fill-rule:nonzero;fill:#233c4f;fill-opacity:1;" d="M 210.9375 375 L 164.0625 375 C 160.828125 375 158.203125 372.375 158.203125 369.140625 L 158.203125 354.902344 C 133.6875 350.628906 110.246094 340.914062 89.851562 326.578125 L 79.773438 336.65625 C 77.484375 338.945312 73.773438 338.945312 71.488281 336.65625 L 38.34375 303.515625 C 37.246094 302.414062 36.628906 300.925781 36.628906 299.371094 C 36.628906 297.816406 37.246094 296.328125 38.34375 295.226562 L 48.425781 285.148438 C 34.085938 264.753906 24.371094 241.3125 20.097656 216.796875 L 5.859375 216.796875 C 2.625 216.796875 0 214.171875 0 210.9375 L 0 164.0625 C 0 160.828125 2.625 158.203125 5.859375 158.203125 L 20.097656 158.203125 C 24.371094 133.6875 34.085938 110.246094 48.421875 89.851562 L 38.34375 79.773438 C 36.054688 77.484375 36.054688 73.773438 38.34375 71.488281 L 71.484375 38.34375 C 73.773438 36.054688 77.484375 36.054688 79.773438 38.34375 L 89.851562 48.425781 C 110.246094 34.085938 133.6875 24.371094 158.203125 20.097656 L 158.203125 5.859375 C 158.203125 2.625 160.828125 0 164.0625 0 L 210.9375 0 C 214.171875 0 216.796875 2.625 216.796875 5.859375 L 216.796875 20.097656 C 241.3125 24.371094 264.753906 34.085938 285.148438 48.421875 L 295.226562 38.34375 C 296.324219 37.246094 297.816406 36.628906 299.371094 36.628906 C 300.925781 36.628906 302.414062 37.246094 303.511719 38.34375 L 336.65625 71.484375 C 338.945312 73.773438 338.945312 77.484375 336.65625 79.773438 L 326.574219 89.851562 C 340.914062 110.246094 350.628906 133.6875 354.902344 158.203125 L 369.140625 158.203125 C 372.375 158.203125 375 160.824219 375 164.0625 L 375 210.9375 C 375 214.171875 372.375 216.796875 369.140625 216.796875 L 354.902344 216.796875 C 350.628906 241.3125 340.914062 264.75 326.578125 285.148438 L 336.65625 295.226562 C 338.945312 297.515625 338.945312 301.222656 336.65625 303.511719 L 303.515625 336.65625 C 301.226562 338.941406 297.515625 338.941406 295.226562 336.65625 L 285.148438 326.574219 C 264.753906 340.914062 241.3125 350.628906 216.796875 354.902344 L 216.796875 369.140625 C 216.796875 372.375 214.171875 375 210.9375 375 Z M 169.921875 363.28125 L 205.078125 363.28125 L 205.078125 349.898438 C 205.078125 346.984375 207.222656 344.511719 210.109375 344.101562 C 236.175781 340.367188 261.117188 330.03125 282.242188 314.207031 C 284.570312 312.460938 287.835938 312.691406 289.898438 314.753906 L 299.371094 324.226562 L 324.226562 299.371094 L 314.753906 289.898438 C 312.691406 287.835938 312.460938 284.574219 314.207031 282.242188 C 330.03125 261.117188 340.371094 236.175781 344.101562 210.109375 C 344.511719 207.222656 346.984375 205.078125 349.898438 205.078125 L 363.28125 205.078125 L 363.28125 169.921875 L 349.898438 169.921875 C 346.984375 169.921875 344.511719 167.777344 344.101562 164.890625 C 340.367188 138.824219 330.03125 113.882812 314.207031 92.757812 C 312.460938 90.425781 312.691406 87.164062 314.753906 85.101562 L 324.226562 75.628906 L 299.371094 50.773438 L 289.898438 60.246094 C 287.835938 62.308594 284.574219 62.539062 282.242188 60.792969 C 261.117188 44.96875 236.175781 34.628906 210.109375 30.902344 C 207.222656 30.488281 205.078125 28.015625 205.078125 25.101562 L 205.078125 11.71875 L 169.921875 11.71875 L 169.921875 25.101562 C 169.921875 28.015625 167.777344 30.488281 164.890625 30.898438 C 138.824219 34.628906 113.882812 44.96875 92.757812 60.792969 C 90.425781 62.539062 87.164062 62.308594 85.101562 60.246094 L 75.628906 50.773438 L 50.773438 75.628906 L 60.246094 85.101562 C 62.308594 87.164062 62.539062 90.425781 60.792969 92.757812 C 44.96875 113.882812 34.628906 138.824219 30.902344 164.894531 C 30.488281 167.777344 28.015625 169.921875 25.101562 169.921875 L 11.71875 169.921875 L 11.71875 205.078125 L 25.101562 205.078125 C 28.015625 205.078125 30.488281 207.222656 30.898438 210.109375 C 34.628906 236.175781 44.96875 261.117188 60.792969 282.242188 C 62.539062 284.574219 62.308594 287.835938 60.246094 289.898438 L 50.773438 299.371094 L 75.628906 324.226562 L 85.101562 314.753906 C 87.164062 312.691406 90.425781 312.460938 92.757812 314.207031 C 113.882812 330.03125 138.824219 340.371094 164.894531 344.101562 C 167.777344 344.511719 169.921875 346.984375 169.921875 349.898438 Z M 169.921875 363.28125 "/><path style=" stroke:none;fill-rule:nonzero;fill:#233c4f;fill-opacity:1;" d="M 187.5 322.265625 C 113.191406 322.265625 52.734375 261.808594 52.734375 187.5 C 52.734375 113.191406 113.191406 52.734375 187.5 52.734375 C 261.808594 52.734375 322.265625 113.191406 322.265625 187.5 C 322.265625 261.808594 261.808594 322.265625 187.5 322.265625 Z M 187.5 64.453125 C 119.652344 64.453125 64.453125 119.652344 64.453125 187.5 C 64.453125 255.347656 119.652344 310.546875 187.5 310.546875 C 255.347656 310.546875 310.546875 255.347656 310.546875 187.5 C 310.546875 119.652344 255.347656 64.453125 187.5 64.453125 Z M 187.5 64.453125 "/><path style=" stroke:none;fill-rule:nonzero;fill:#233c4f;fill-opacity:1;" d="M 208.007812 181.640625 C 195.085938 181.640625 184.570312 171.125 184.570312 158.203125 C 184.570312 145.28125 195.085938 134.765625 208.007812 134.765625 C 220.929688 134.765625 231.445312 145.28125 231.445312 158.203125 C 231.445312 171.125 220.929688 181.640625 208.007812 181.640625 Z M 208.007812 146.484375 C 201.546875 146.484375 196.289062 151.742188 196.289062 158.203125 C 196.289062 164.664062 201.546875 169.921875 208.007812 169.921875 C 214.46875 169.921875 219.726562 164.664062 219.726562 158.203125 C 219.726562 151.742188 214.46875 146.484375 208.007812 146.484375 Z M 208.007812 146.484375 "/><path style=" stroke:none;fill-rule:nonzero;fill:#233c4f;fill-opacity:1;" d="M 208.007812 281.25 C 204.773438 281.25 202.148438 278.625 202.148438 275.390625 L 202.148438 175.78125 C 202.148438 172.546875 204.773438 169.921875 208.007812 169.921875 C 211.242188 169.921875 213.867188 172.546875 213.867188 175.78125 L 213.867188 275.390625 C 213.867188 278.625 211.242188 281.25 208.007812 281.25 Z M 208.007812 281.25 "/><path style=" stroke:none;fill-rule:nonzero;fill:#233c4f;fill-opacity:1;" d="M 208.007812 146.484375 C 204.773438 146.484375 202.148438 143.859375 202.148438 140.625 L 202.148438 117.1875 C 202.148438 113.953125 204.773438 111.328125 208.007812 111.328125 C 211.242188 111.328125 213.867188 113.953125 213.867188 117.1875 L 213.867188 140.625 C 213.867188 143.859375 211.242188 146.484375 208.007812 146.484375 Z M 208.007812 146.484375 "/><path style=" stroke:none;fill-rule:nonzero;fill:#233c4f;fill-opacity:1;" d="M 249.023438 246.09375 C 236.101562 246.09375 225.585938 235.578125 225.585938 222.65625 C 225.585938 209.734375 236.101562 199.21875 249.023438 199.21875 C 261.945312 199.21875 272.460938 209.734375 272.460938 222.65625 C 272.460938 235.578125 261.945312 246.09375 249.023438 246.09375 Z M 249.023438 210.9375 C 242.5625 210.9375 237.304688 216.195312 237.304688 222.65625 C 237.304688 229.117188 242.5625 234.375 249.023438 234.375 C 255.484375 234.375 260.742188 229.117188 260.742188 222.65625 C 260.742188 216.195312 255.484375 210.9375 249.023438 210.9375 Z M 249.023438 210.9375 "/><path style=" stroke:none;fill-rule:nonzero;fill:#233c4f;fill-opacity:1;" d="M 249.023438 281.25 C 245.789062 281.25 243.164062 278.625 243.164062 275.390625 L 243.164062 240.234375 C 243.164062 237 245.789062 234.375 249.023438 234.375 C 252.257812 234.375 254.882812 237 254.882812 240.234375 L 254.882812 275.390625 C 254.882812 278.625 252.257812 281.25 249.023438 281.25 Z M 249.023438 281.25 "/><path style=" stroke:none;fill-rule:nonzero;fill:#233c4f;fill-opacity:1;" d="M 249.023438 210.9375 C 245.789062 210.9375 243.164062 208.3125 243.164062 205.078125 L 243.164062 117.1875 C 243.164062 113.953125 245.789062 111.328125 249.023438 111.328125 C 252.257812 111.328125 254.882812 113.953125 254.882812 117.1875 L 254.882812 205.078125 C 254.882812 208.3125 252.257812 210.9375 249.023438 210.9375 Z M 249.023438 210.9375 "/><path style=" stroke:none;fill-rule:nonzero;fill:#233c4f;fill-opacity:1;" d="M 166.992188 246.09375 C 154.070312 246.09375 143.554688 235.578125 143.554688 222.65625 C 143.554688 209.734375 154.070312 199.21875 166.992188 199.21875 C 179.914062 199.21875 190.429688 209.734375 190.429688 222.65625 C 190.429688 235.578125 179.914062 246.09375 166.992188 246.09375 Z M 166.992188 210.9375 C 160.53125 210.9375 155.273438 216.195312 155.273438 222.65625 C 155.273438 229.117188 160.53125 234.375 166.992188 234.375 C 173.453125 234.375 178.710938 229.117188 178.710938 222.65625 C 178.710938 216.195312 173.453125 210.9375 166.992188 210.9375 Z M 166.992188 210.9375 "/><path style=" stroke:none;fill-rule:nonzero;fill:#233c4f;fill-opacity:1;" d="M 166.992188 281.25 C 163.757812 281.25 161.132812 278.625 161.132812 275.390625 L 161.132812 240.234375 C 161.132812 237 163.757812 234.375 166.992188 234.375 C 170.226562 234.375 172.851562 237 172.851562 240.234375 L 172.851562 275.390625 C 172.851562 278.625 170.226562 281.25 166.992188 281.25 Z M 166.992188 281.25 "/><path style=" stroke:none;fill-rule:nonzero;fill:#233c4f;fill-opacity:1;" d="M 166.992188 210.9375 C 163.757812 210.9375 161.132812 208.3125 161.132812 205.078125 L 161.132812 117.1875 C 161.132812 113.953125 163.757812 111.328125 166.992188 111.328125 C 170.226562 111.328125 172.851562 113.953125 172.851562 117.1875 L 172.851562 205.078125 C 172.851562 208.3125 170.226562 210.9375 166.992188 210.9375 Z M 166.992188 210.9375 "/><path style=" stroke:none;fill-rule:nonzero;fill:#233c4f;fill-opacity:1;" d="M 125.976562 193.359375 C 113.054688 193.359375 102.539062 182.84375 102.539062 169.921875 C 102.539062 157 113.054688 146.484375 125.976562 146.484375 C 138.898438 146.484375 149.414062 157 149.414062 169.921875 C 149.414062 182.84375 138.898438 193.359375 125.976562 193.359375 Z M 125.976562 158.203125 C 119.515625 158.203125 114.257812 163.460938 114.257812 169.921875 C 114.257812 176.382812 119.515625 181.640625 125.976562 181.640625 C 132.4375 181.640625 137.695312 176.382812 137.695312 169.921875 C 137.695312 163.460938 132.4375 158.203125 125.976562 158.203125 Z M 125.976562 158.203125 "/><path style=" stroke:none;fill-rule:nonzero;fill:#233c4f;fill-opacity:1;" d="M 125.976562 281.25 C 122.742188 281.25 120.117188 278.625 120.117188 275.390625 L 120.117188 187.5 C 120.117188 184.265625 122.742188 181.640625 125.976562 181.640625 C 129.210938 181.640625 131.835938 184.265625 131.835938 187.5 L 131.835938 275.390625 C 131.835938 278.625 129.210938 281.25 125.976562 281.25 Z M 125.976562 281.25 "/><path style=" stroke:none;fill-rule:nonzero;fill:#233c4f;fill-opacity:1;" d="M 125.976562 158.203125 C 122.742188 158.203125 120.117188 155.578125 120.117188 152.34375 L 120.117188 117.1875 C 120.117188 113.953125 122.742188 111.328125 125.976562 111.328125 C 129.210938 111.328125 131.835938 113.953125 131.835938 117.1875 L 131.835938 152.34375 C 131.835938 155.578125 129.210938 158.203125 125.976562 158.203125 Z M 125.976562 158.203125 "/></g></svg>